<svg width="46" height="46" viewBox="0 0 46 46" fill="none" xmlns="http://www.w3.org/2000/svg">
    <path
        d="M23 2C23.7259 2 24.4512 2.03707 25.1733 2.11105L25.3268 0.618927C23.2583 0.40669 21.1705 0.478772 19.1216 0.833161L19.3785 2.311C20.5745 2.10388 21.7862 1.99983 23 2Z"
        fill="#00315C" />
    <path
        d="M10.6902 5.98406L9.80995 4.76953C6.92544 6.85391 4.57724 9.59359 2.95867 12.763C1.3401 15.9325 0.49745 19.441 0.50009 22.9998C0.490272 26.4614 1.28735 29.8777 2.82809 32.9776L4.17209 32.3116C2.73443 29.4186 1.99076 26.2303 2.00009 22.9998C1.99742 19.678 2.78389 16.4031 4.29474 13.4447C5.80559 10.4864 7.9976 7.92933 10.6902 5.98406Z"
        fill="#00315C" />
    <path
        d="M23.7246 43.9873L23.7753 45.4864C25.8854 45.4161 27.9751 45.0486 29.9826 44.3948L29.5174 42.9688C27.6439 43.5788 25.6938 43.9217 23.7246 43.9873Z"
        fill="#00315C" />
    <path d="M9.5 22.25H11V39.5H9.5V22.25Z" fill="#00315C" />
    <path d="M14 22.25H15.5V39.5H14V22.25Z" fill="#00315C" />
    <path d="M18.5 22.25H20V39.5H18.5V22.25Z" fill="#00315C" />
    <path
        d="M45.0751 23.7238L31.5576 17.2216C31.0197 16.9636 30.4015 16.9296 29.8385 17.1269C29.2756 17.3242 28.8138 17.7367 28.5546 18.274L24.5 26.7034V19.25C24.4989 18.2558 24.1034 17.3026 23.4004 16.5996C22.6974 15.8966 21.7442 15.5011 20.75 15.5H17.75V3.5C17.75 2.70435 17.4339 1.94129 16.8713 1.37868C16.3087 0.816071 15.5456 0.5 14.75 0.5C13.9544 0.5 13.1913 0.816071 12.6287 1.37868C12.0661 1.94129 11.75 2.70435 11.75 3.5V15.5H8.75C7.75578 15.5011 6.80261 15.8966 6.0996 16.5996C5.39658 17.3026 5.00113 18.2558 5 19.25V38.75C5.00091 39.5202 5.23857 40.2715 5.68077 40.9021C6.12298 41.5328 6.74835 42.0122 7.47215 42.2755C7.3116 42.6093 7.2359 42.9775 7.25178 43.3475C7.26766 43.7175 7.37463 44.0778 7.56318 44.3966C7.75174 44.7154 8.01606 44.9826 8.33269 45.1748C8.64932 45.3669 9.00847 45.4778 9.37828 45.4978C9.74809 45.5179 10.1171 45.4463 10.4526 45.2895C10.7881 45.1326 11.0798 44.8954 11.3016 44.5989C11.5235 44.3023 11.6687 43.9556 11.7244 43.5895C11.7801 43.2233 11.7446 42.8491 11.621 42.5H17.879C17.7555 42.8491 17.7201 43.2232 17.7759 43.5892C17.8317 43.9553 17.9769 44.3019 18.1987 44.5983C18.4206 44.8948 18.7121 45.1319 19.0476 45.2886C19.383 45.4454 19.752 45.517 20.1217 45.4969C20.4914 45.4769 20.8505 45.366 21.167 45.174C21.4836 44.9819 21.7479 44.7147 21.9364 44.3961C22.125 44.0774 22.232 43.7172 22.2479 43.3473C22.2639 42.9773 22.1883 42.6092 22.0278 42.2755C22.6174 42.0603 23.1438 41.7011 23.5592 41.2306C23.9745 40.7601 24.2656 40.1932 24.4059 39.5815L34.9969 44.6758C35.0856 44.7186 35.1819 44.7435 35.2803 44.749C35.3787 44.7545 35.4771 44.7406 35.5701 44.708C35.6631 44.6754 35.7487 44.6249 35.8221 44.5592C35.8955 44.4935 35.9552 44.4139 35.9979 44.3251L45.4259 24.7248C45.5121 24.5455 45.5236 24.3394 45.4578 24.1516C45.392 23.9639 45.2544 23.81 45.0751 23.7238ZM30.5835 18.4994C30.6957 18.4993 30.8064 18.5246 30.9074 18.5733L43.749 24.7504L43.0988 26.1022L30.2572 19.9252C30.0782 19.8388 29.9408 19.6851 29.875 19.4976C29.8092 19.3101 29.8203 19.1042 29.9061 18.9249L29.9064 18.9242C29.9679 18.7968 30.064 18.6893 30.1838 18.6142C30.3036 18.539 30.4421 18.4992 30.5835 18.4994ZM13.25 3.5C13.25 3.10218 13.408 2.72064 13.6893 2.43934C13.9706 2.15804 14.3522 2 14.75 2C15.1478 2 15.5294 2.15804 15.8107 2.43934C16.092 2.72064 16.25 3.10218 16.25 3.5V15.5H13.25V3.5ZM10.25 43.25C10.25 43.3983 10.206 43.5433 10.1236 43.6667C10.0412 43.79 9.92406 43.8861 9.78701 43.9429C9.64997 43.9997 9.49917 44.0145 9.35368 43.9856C9.2082 43.9566 9.07456 43.8852 8.96967 43.7803C8.86478 43.6754 8.79335 43.5418 8.76441 43.3963C8.73547 43.2508 8.75032 43.1 8.80709 42.963C8.86386 42.8259 8.95999 42.7088 9.08332 42.6264C9.20666 42.544 9.35166 42.5 9.5 42.5C9.69884 42.5002 9.88948 42.5793 10.0301 42.7199C10.1707 42.8605 10.2498 43.0512 10.25 43.25ZM20 44C19.8517 44 19.7067 43.956 19.5833 43.8736C19.46 43.7912 19.3639 43.6741 19.3071 43.537C19.2503 43.4 19.2355 43.2492 19.2644 43.1037C19.2934 42.9582 19.3648 42.8246 19.4697 42.7197C19.5746 42.6148 19.7082 42.5434 19.8537 42.5144C19.9992 42.4855 20.15 42.5003 20.287 42.5571C20.4241 42.6139 20.5412 42.71 20.6236 42.8333C20.706 42.9567 20.75 43.1017 20.75 43.25C20.7498 43.4488 20.6707 43.6395 20.5301 43.7801C20.3895 43.9207 20.1988 43.9998 20 44ZM20.75 41H8.75C8.15347 40.9993 7.58157 40.762 7.15976 40.3402C6.73795 39.9184 6.50068 39.3465 6.5 38.75V19.25C6.50068 18.6535 6.73795 18.0816 7.15976 17.6598C7.58157 17.238 8.15347 17.0007 8.75 17H11.75V20.75H13.25V17H16.25V20.75H17.75V17H20.75C21.3465 17.0007 21.9184 17.238 22.3402 17.6598C22.762 18.0816 22.9993 18.6535 23 19.25V29.8218L20.427 35.1708C20.299 35.4371 20.2246 35.726 20.2082 36.021C20.1917 36.316 20.2336 36.6114 20.3313 36.8902C20.429 37.1691 20.5807 37.426 20.7777 37.6462C20.9746 37.8664 21.2131 38.0457 21.4794 38.1738L22.9943 38.9024C22.955 39.4712 22.7016 40.0039 22.2851 40.3931C21.8687 40.7824 21.3201 40.9993 20.75 41ZM34.9712 42.9991L22.1296 36.8221C21.9503 36.7358 21.8127 36.5819 21.7469 36.3942C21.6811 36.2065 21.6926 36.0003 21.7788 35.821L28.987 20.8355C29.167 21.017 29.3767 21.1662 29.607 21.2769L42.4486 27.4539L34.9712 42.9991Z"
        fill="#00315C" />
    <path
        d="M35.0398 25.5539C34.1042 25.1039 33.056 24.9414 32.028 25.0871C31 25.2327 30.0382 25.6799 29.2644 26.3722C28.4905 27.0644 27.9393 27.9705 27.6804 28.976C27.4216 29.9815 27.4667 31.0412 27.81 32.0211C28.1534 33.001 28.7796 33.857 29.6095 34.481C30.4394 35.1049 31.4357 35.4688 32.4723 35.5266C33.509 35.5844 34.5395 35.3334 35.4336 34.8055C36.3277 34.2776 37.0451 33.4965 37.4952 32.5608C38.0972 31.3058 38.1767 29.8632 37.7164 28.5496C37.2561 27.236 36.2935 26.1587 35.0398 25.5539ZM36.4006 31.202L35.0559 30.5552C35.3564 29.7263 35.5039 28.8497 35.4914 27.9681L35.4874 27.7081C35.9204 28.1673 36.2309 28.7279 36.3905 29.3384C36.55 29.9489 36.5535 30.5898 36.4006 31.202ZM31.738 32.676L31.5404 32.829L31.5366 32.5791C31.5277 31.9305 31.628 31.2849 31.8332 30.6695L33.0448 31.2523C32.6921 31.7968 32.2504 32.278 31.738 32.676ZM32.4834 29.3178C32.8361 28.7733 33.2779 28.2921 33.7902 27.8941L33.9878 27.7411L33.9916 27.9909C34.0005 28.6396 33.9002 29.2852 33.695 29.9006L32.4834 29.3178ZM32.7701 26.5353C32.8721 26.5353 32.9744 26.5408 33.0768 26.5493L32.8719 26.7079C32.1753 27.2485 31.5826 27.911 31.1225 28.6632L29.7793 28.0171C30.1302 27.5567 30.5827 27.1834 31.1014 26.9264C31.6201 26.6694 32.1912 26.5355 32.7701 26.5353ZM29.1271 29.3679L30.4723 30.0149C30.1719 30.8438 30.0243 31.7204 30.0368 32.602L30.0408 32.8644C29.6069 32.4053 29.2957 31.8443 29.136 31.2332C28.9763 30.622 28.9733 29.9805 29.1271 29.3679ZM32.4508 34.0212L32.6563 33.8621C33.3529 33.3216 33.9456 32.6591 34.4057 31.9069L35.7504 32.5538C35.3675 33.0554 34.8647 33.4527 34.2881 33.7091C33.7116 33.9655 33.0798 34.0729 32.4508 34.0212Z"
        fill="#00315C" />
    <path d="M25.4634 36.7578L26.1128 35.4064L32.8703 38.6539L32.2209 40.0053L25.4634 36.7578Z"
        fill="#00315C" />
    <path
        d="M32.9053 10.846C32.4659 10.4077 31.8706 10.1615 31.25 10.1615C30.6294 10.1615 30.0341 10.4077 29.5947 10.846C29.4368 11.0035 29.223 11.0919 29 11.0919C28.777 11.0919 28.5632 11.0035 28.4053 10.846L28.2178 10.6585C27.231 9.67399 25.8939 9.12109 24.5 9.12109C23.1061 9.12109 21.769 9.67399 20.7822 10.6585C20.5814 10.8603 20.3427 11.0203 20.0797 11.1293C19.8167 11.2382 19.5347 11.2939 19.25 11.2931V12.7931C19.7317 12.7945 20.2089 12.7002 20.654 12.5159C21.099 12.3315 21.5031 12.0608 21.8428 11.7192C22.5481 11.0155 23.5037 10.6203 24.5 10.6203C25.4963 10.6203 26.4519 11.0155 27.1572 11.7192L27.3447 11.9067C27.7841 12.345 28.3794 12.5912 29 12.5912C29.6206 12.5912 30.2159 12.345 30.6553 11.9067C30.8131 11.7492 31.027 11.6607 31.25 11.6607C31.473 11.6607 31.6869 11.7492 31.8447 11.9067L33.227 13.2891C35.9153 15.9923 39.5253 17.5807 43.3345 17.7363C43.6571 18.9866 43.8634 20.2641 43.9508 21.5524L45.4474 21.4504C45.249 18.4781 44.4568 15.5757 43.1177 12.9147L41.7773 13.588C42.2023 14.4346 42.5693 15.3091 42.8758 16.2055C39.63 15.948 36.5835 14.5372 34.2877 12.2283L32.9053 10.846Z"
        fill="#00315C" />
    <path
        d="M26.3589 4.13995L38.8511 11.7741C39.2816 12.0385 39.7887 12.1499 40.2904 12.0902C40.7921 12.0306 41.259 11.8033 41.6154 11.4452L44.5303 8.53036C44.671 8.3897 44.75 8.19892 44.75 8C44.75 7.80107 44.671 7.61029 44.5303 7.46963L43.0303 5.96963C42.9077 5.84706 42.7464 5.77076 42.5739 5.75368C42.4014 5.73661 42.2282 5.77982 42.084 5.87597L40.25 7.09857L36.8257 4.8157L38.6 2.44998C38.7083 2.30555 38.7609 2.12689 38.7481 1.9468C38.7353 1.76672 38.658 1.59729 38.5303 1.46963L37.7803 0.719633C37.669 0.608337 37.5255 0.534883 37.3701 0.509678C37.2147 0.484473 37.0554 0.508794 36.9146 0.579196L32.7828 2.64508L31.3944 1.81195C30.6775 1.38075 29.8369 1.202 29.0067 1.30422C28.1764 1.40643 27.4042 1.78372 26.8134 2.37591L26.2197 2.96963C26.1394 3.04986 26.0785 3.14725 26.0413 3.25446C26.0042 3.36168 25.9918 3.47592 26.0053 3.58859C26.0187 3.70126 26.0575 3.80942 26.1187 3.90492C26.18 4.00042 26.2621 4.08078 26.3589 4.13995ZM30.6226 3.09826L32.3641 4.14315C32.4723 4.20805 32.5951 4.2446 32.7212 4.24943C32.8473 4.25427 32.9725 4.22722 33.0854 4.1708L36.8438 2.29159L35.15 4.55001C35.0888 4.63161 35.0449 4.72482 35.0209 4.82397C34.997 4.92311 34.9935 5.0261 35.0108 5.12662C35.028 5.22715 35.0655 5.32311 35.1211 5.40864C35.1767 5.49416 35.2491 5.56744 35.334 5.62401L39.834 8.62401C39.9572 8.70613 40.1019 8.74995 40.25 8.74995C40.3981 8.74995 40.5428 8.70613 40.666 8.62401L42.4044 7.46505L42.9393 8L40.5547 10.3846C40.4359 10.5039 40.2803 10.5797 40.1131 10.5996C39.9459 10.6195 39.7768 10.5823 39.6333 10.4942L27.9564 3.35827C28.314 3.03435 28.7663 2.83416 29.2465 2.78733C29.7267 2.7405 30.2092 2.84952 30.6226 3.09826Z"
        fill="#00315C" />
</svg>