<svg width="20" height="16" viewBox="0 0 20 16" fill="none" xmlns="http://www.w3.org/2000/svg">
    <path fill-rule="evenodd" clip-rule="evenodd"
        d="M2.58903 2.62835C2.72684 2.3558 3.01026 2.16667 3.33358 2.16667H16.6669C16.9902 2.16667 17.2736 2.35579 17.4115 2.62834L10.0002 7.81619L2.58903 2.62835ZM0.833633 2.98423C0.833469 2.99331 0.833452 3.00238 0.833584 3.01144V13C0.833584 14.3769 1.95668 15.5 3.33358 15.5H16.6669C18.0438 15.5 19.1669 14.3769 19.1669 13V3.00921M17.5002 4.60061V13C17.5002 13.4564 17.1233 13.8333 16.6669 13.8333H3.33358C2.87715 13.8333 2.50025 13.4564 2.50025 13V4.60063L9.52235 9.5161C9.80928 9.71695 10.1912 9.71695 10.4781 9.5161L17.5002 4.60061ZM19.1669 2.98695C19.1598 1.61601 18.0395 0.5 16.6669 0.5H3.33358C1.96194 0.5 0.842167 1.61453 0.833633 2.98423"
        fill="#707070" />
</svg>