<svg width="18" height="18" viewBox="0 0 18 18" fill="none" xmlns="http://www.w3.org/2000/svg">
    <path fill-rule="evenodd" clip-rule="evenodd"
        d="M2.32999 4.16552C2.45401 3.92022 2.70909 3.75 3.00009 3.75H15.0001C15.2911 3.75 15.5461 3.92021 15.6702 4.1655L9.00006 8.83457L2.32999 4.16552ZM0.750136 4.4851C0.749972 4.4937 0.749956 4.50229 0.750088 4.51088V13.5C0.750088 14.7392 1.76087 15.75 3.00009 15.75H15.0001C16.2393 15.75 17.2501 14.7392 17.2501 13.5V4.50705M15.7501 5.94054V13.5C15.7501 13.9108 15.4109 14.25 15.0001 14.25H3.00009C2.5893 14.25 2.25009 13.9108 2.25009 13.5V5.94057L8.56997 10.3645C8.82821 10.5453 9.17192 10.5453 9.43016 10.3645L15.7501 5.94054ZM17.2501 4.48977C17.2445 3.25523 16.2359 2.25 15.0001 2.25H3.00009C1.76585 2.25 0.758202 3.25269 0.750136 4.4851"
        fill="white" />
</svg>