<svg width="18" height="18" viewBox="0 0 18 18" fill="none" xmlns="http://www.w3.org/2000/svg">
    <g clip-path="url(#clip0_4046_5243)">
        <path
            d="M14.6625 10.92C14.6516 11.0102 14.6083 11.0934 14.5408 11.154C14.4732 11.2147 14.3858 11.2488 14.295 11.25H12.75C12.6511 11.2519 12.5569 11.292 12.487 11.362C12.417 11.4319 12.3769 11.5261 12.375 11.625V17.625C12.375 17.7245 12.4145 17.8198 12.4848 17.8902C12.5552 17.9605 12.6505 18 12.75 18H17.25C17.4489 18 17.6397 17.921 17.7803 17.7803C17.921 17.6397 18 17.4489 18 17.25V0.75C18 0.551088 17.921 0.360322 17.7803 0.21967C17.6397 0.0790176 17.4489 0 17.25 0L0.75 0C0.551088 0 0.360322 0.0790176 0.21967 0.21967C0.0790176 0.360322 0 0.551088 0 0.75L0 17.25C0 17.4489 0.0790176 17.6397 0.21967 17.7803C0.360322 17.921 0.551088 18 0.75 18H9C9.09886 17.9981 9.19313 17.958 9.26304 17.888C9.33295 17.8181 9.37308 17.7239 9.375 17.625V11.625C9.375 11.5255 9.33549 11.4302 9.26517 11.3598C9.19484 11.2895 9.09946 11.25 9 11.25H7.5C7.40054 11.25 7.30516 11.2105 7.23483 11.1402C7.16451 11.0698 7.125 10.9745 7.125 10.875V8.625C7.125 8.52554 7.16451 8.43016 7.23483 8.35983C7.30516 8.28951 7.40054 8.25 7.5 8.25H9C9.09946 8.25 9.19484 8.21049 9.26517 8.14017C9.33549 8.06984 9.375 7.97446 9.375 7.875V6.8925C9.375 5.76069 9.82461 4.67523 10.6249 3.87492C11.4252 3.07461 12.5107 2.625 13.6425 2.625H14.625C14.7245 2.625 14.8198 2.66451 14.8902 2.73484C14.9605 2.80516 15 2.90054 15 3V5.25C15 5.34946 14.9605 5.44484 14.8902 5.51516C14.8198 5.58549 14.7245 5.625 14.625 5.625H13.6425C13.3063 5.625 12.9839 5.75854 12.7462 5.99624C12.5085 6.23394 12.375 6.55634 12.375 6.8925V7.875C12.375 7.97446 12.4145 8.06984 12.4848 8.14017C12.5552 8.21049 12.6505 8.25 12.75 8.25H14.5725C14.6264 8.24953 14.6797 8.26068 14.7289 8.28268C14.7781 8.30468 14.8219 8.33702 14.8575 8.3775C14.8918 8.41743 14.9175 8.46403 14.933 8.51436C14.9485 8.56469 14.9534 8.61768 14.9475 8.67L14.6625 10.92Z"
            fill="white" />
    </g>
    <defs>
        <clipPath id="clip0_4046_5243">
            <rect width="18" height="18" fill="white" />
        </clipPath>
    </defs>
</svg>