<svg width="18" height="18" viewBox="0 0 18 18" fill="none" xmlns="http://www.w3.org/2000/svg">
    <g clip-path="url(#clip0_4046_5233)">
        <path
            d="M4.57434 5.55168C4.64972 5.61244 4.74568 5.64169 4.84214 5.6333C4.9386 5.62491 5.02807 5.57954 5.09184 5.50668C5.58319 4.95592 6.18516 4.51494 6.85846 4.21254C7.53175 3.91014 8.26125 3.7531 8.99934 3.75168C9.71698 3.74764 10.4276 3.89291 11.0861 4.17825C11.7446 4.4636 12.3365 4.88279 12.8243 5.40918C12.8592 5.44433 12.9007 5.47223 12.9464 5.49127C12.9921 5.51031 13.0411 5.52011 13.0906 5.52011C13.1401 5.52011 13.1891 5.51031 13.2348 5.49127C13.2805 5.47223 13.322 5.44433 13.3568 5.40918L15.5468 3.35418C15.5818 3.31997 15.6095 3.27913 15.6284 3.23405C15.6474 3.18898 15.6571 3.14058 15.6571 3.09168C15.6571 3.04279 15.6474 2.99439 15.6284 2.94932C15.6095 2.90424 15.5818 2.8634 15.5468 2.82918C14.682 1.90994 13.6335 1.18287 12.4695 0.69517C11.3054 0.207474 10.0518 -0.0299358 8.79 -0.00164465C7.52822 0.0266465 6.28649 0.320006 5.14545 0.859386C4.00441 1.39877 2.98957 2.1721 2.16684 3.12918C2.13369 3.16685 2.1086 3.2109 2.09312 3.25862C2.07764 3.30635 2.0721 3.35674 2.07684 3.40668C2.08436 3.46149 2.10367 3.514 2.13345 3.56062C2.16323 3.60723 2.20277 3.64683 2.24934 3.67668L4.57434 5.55168Z"
            fill="white" />
        <path
            d="M3.93001 11.0951C3.98417 11.0445 4.02282 10.9796 4.04141 10.9079C4.06001 10.8361 4.05779 10.7606 4.03501 10.6901C3.84755 10.1472 3.75125 9.57696 3.75001 9.00258C3.75126 8.43924 3.84241 7.8797 4.02001 7.34508C4.04699 7.27256 4.0499 7.19327 4.02828 7.11897C4.00667 7.04467 3.96169 6.97931 3.90001 6.93258L1.50001 4.98258C1.4553 4.94672 1.40311 4.92136 1.34729 4.90838C1.29147 4.8954 1.23345 4.89513 1.17751 4.90758C1.1223 4.91948 1.07058 4.94393 1.02636 4.97905C0.982131 5.01417 0.946596 5.05901 0.922507 5.11008C0.326893 6.32195 0.011606 7.65231 7.33252e-06 9.00258C-0.00182655 10.428 0.34036 11.8327 0.997507 13.0976C1.02356 13.1501 1.06155 13.1958 1.10844 13.2309C1.15533 13.2661 1.20981 13.2898 1.26751 13.3001C1.32339 13.3078 1.38027 13.3039 1.43451 13.2884C1.48876 13.2729 1.53917 13.2462 1.58251 13.2101L3.93001 11.0951Z"
            fill="white" />
        <path
            d="M18 7.875C17.9981 7.77614 17.958 7.68187 17.888 7.61196C17.8181 7.54205 17.7239 7.50192 17.625 7.5H10.125C10.0255 7.5 9.93016 7.53951 9.85983 7.60983C9.78951 7.68016 9.75 7.77554 9.75 7.875V10.875C9.75 10.9745 9.78951 11.0698 9.85983 11.1402C9.93016 11.2105 10.0255 11.25 10.125 11.25H13.755C13.5379 11.71 13.2494 12.1328 12.9 12.5025C12.8378 12.5714 12.8034 12.6609 12.8034 12.7537C12.8034 12.8466 12.8378 12.9361 12.9 13.005L14.9025 15.255C14.9372 15.2945 14.9799 15.3263 15.0277 15.3483C15.0755 15.3702 15.1274 15.3819 15.18 15.3825C15.2314 15.3834 15.2825 15.3739 15.3302 15.3545C15.3779 15.3352 15.4212 15.3065 15.4575 15.27C16.9841 13.7034 17.8879 11.6345 18 9.45V7.875Z"
            fill="white" />
        <path
            d="M11.6398 13.8466C11.5844 13.7876 11.5121 13.7472 11.4329 13.7311C11.3536 13.7149 11.2712 13.7239 11.1973 13.7566C10.1876 14.2321 9.05171 14.3699 7.95764 14.1497C6.86357 13.9296 5.86942 13.3631 5.12225 12.5341C5.08804 12.4992 5.04719 12.4715 5.00212 12.4525C4.95705 12.4336 4.90864 12.4238 4.85975 12.4238C4.81086 12.4238 4.76246 12.4336 4.71739 12.4525C4.67231 12.4715 4.63147 12.4992 4.59725 12.5341L2.34725 14.5366C2.3121 14.5715 2.28421 14.613 2.26517 14.6587C2.24613 14.7044 2.23633 14.7534 2.23633 14.8029C2.23633 14.8524 2.24613 14.9014 2.26517 14.9471C2.28421 14.9928 2.3121 15.0343 2.34725 15.0691C3.7414 16.6028 5.62215 17.6082 7.67183 17.9157C9.72151 18.2232 11.8145 17.8137 13.5973 16.7566C13.6446 16.7285 13.6852 16.6902 13.7161 16.6446C13.747 16.599 13.7675 16.5472 13.7761 16.4928C13.7847 16.4383 13.7812 16.3827 13.7658 16.3298C13.7505 16.2769 13.7236 16.228 13.6873 16.1866L11.6398 13.8466Z"
            fill="white" />
    </g>
    <defs>
        <clipPath id="clip0_4046_5233">
            <rect width="18" height="18" fill="white" />
        </clipPath>
    </defs>
</svg>