<svg width="21" height="18" viewBox="0 0 21 18" fill="none" xmlns="http://www.w3.org/2000/svg">
    <path
        d="M17.4667 2.84319C17.0411 2.41736 16.5357 2.07956 15.9795 1.84909C15.4233 1.61862 14.8271 1.5 14.225 1.5C13.623 1.5 13.0268 1.61862 12.4706 1.84909C11.9144 2.07956 11.409 2.41736 10.9834 2.84319L10.1 3.72652L9.2167 2.84319C8.35696 1.98344 7.1909 1.50045 5.97503 1.50045C4.75917 1.50045 3.59311 1.98344 2.73337 2.84319C1.87362 3.70293 1.39063 4.86899 1.39062 6.08485C1.39062 7.30072 1.87362 8.46678 2.73337 9.32652L3.6167 10.2099L10.1 16.6932L16.5834 10.2099L17.4667 9.32652C17.8925 8.90089 18.2303 8.39553 18.4608 7.83932C18.6913 7.2831 18.8099 6.68693 18.8099 6.08485C18.8099 5.48278 18.6913 4.88661 18.4608 4.33039C18.2303 3.77418 17.8925 3.26882 17.4667 2.84319Z"
        stroke="white" stroke-width="2.5" stroke-linecap="round" stroke-linejoin="round" />
</svg>