<svg width="70" height="36" viewBox="0 0 70 36" fill="none" xmlns="http://www.w3.org/2000/svg">
<path d="M22.3001 35.4928C22.3 34.8863 22.3432 34.2806 22.4295 33.6803C22.5553 32.8121 22.768 31.9589 23.0645 31.1336C23.1277 30.9584 23.1939 30.7862 23.2661 30.614C23.3383 30.4418 23.4106 30.2696 23.4888 30.1035C23.8606 29.3088 24.3113 28.5538 24.834 27.8499C25.2033 27.3635 25.6055 26.9032 26.0378 26.4723C27.0879 25.4234 28.3094 24.5631 29.6492 23.9287C29.8177 23.8501 29.9862 23.7746 30.1578 23.7051C30.3293 23.6326 30.5008 23.5662 30.6754 23.5027C32.6433 22.7805 34.7594 22.5615 36.8328 22.8653C37.6989 22.9888 38.55 23.2014 39.3727 23.4997C39.5473 23.5632 39.7188 23.6326 39.8904 23.7051C40.0619 23.7776 40.2304 23.8501 40.399 23.9257C42.302 24.8163 43.9561 26.1654 45.2141 27.8529C45.7389 28.556 46.1906 29.3111 46.5623 30.1065C46.6376 30.2726 46.7128 30.4448 46.785 30.617C46.8573 30.7892 46.9235 30.9614 46.9867 31.1336C47.2828 31.96 47.4955 32.8142 47.6217 33.6833C47.7079 34.2836 47.7511 34.8893 47.7511 35.4958H48.5967C48.5956 34.8479 48.5493 34.2009 48.4583 33.5594C48.3246 32.6322 48.0967 31.7212 47.7782 30.8406C47.7119 30.6563 47.6397 30.472 47.5645 30.2878C47.4892 30.1035 47.411 29.9252 47.3267 29.744C46.3801 27.7145 44.9495 25.9505 43.1616 24.6084C42.4098 24.0475 41.6031 23.5647 40.7541 23.1674C40.5765 23.0828 40.396 23.0043 40.2154 22.9288C40.0348 22.8532 39.8482 22.7807 39.6616 22.7143C38.7845 22.3948 37.8769 22.1671 36.9531 22.0346C34.742 21.7101 32.4852 21.9437 30.3865 22.7143C30.1999 22.7838 30.0163 22.8532 29.8358 22.9318C29.6552 23.0103 29.4716 23.0859 29.2941 23.1704C27.8602 23.8445 26.5546 24.7646 25.4359 25.8893C24.9797 26.3473 24.5573 26.838 24.172 27.3574C23.6124 28.1062 23.1313 28.9111 22.7364 29.7591C22.6522 29.9403 22.5739 30.1216 22.4987 30.3029C22.4235 30.4841 22.3512 30.6714 22.282 30.8587C21.7378 32.3432 21.4537 33.911 21.4424 35.4928H22.288H22.3001Z" fill="#F27052"/>
<path d="M31.1745 20.8697C31.0922 20.8819 31.0152 20.9182 30.9535 20.9742C30.8917 21.0302 30.8478 21.1033 30.8274 21.1842C30.8069 21.2652 30.8108 21.3505 30.8386 21.4292C30.8663 21.508 30.9167 21.5767 30.9833 21.6268C31.05 21.6768 31.1299 21.7059 31.2129 21.7105C31.296 21.715 31.3786 21.6947 31.4502 21.6522C31.5219 21.6097 31.5794 21.5468 31.6154 21.4715C31.6515 21.3963 31.6646 21.3119 31.653 21.2292C31.6452 21.174 31.6267 21.1209 31.5984 21.0729C31.5702 21.0249 31.5327 20.983 31.4882 20.9496C31.4438 20.9162 31.3931 20.8919 31.3393 20.8782C31.2855 20.8645 31.2294 20.8616 31.1745 20.8697Z" fill="#F27052"/>
<path d="M22.5891 27.7892C22.5222 27.7406 22.4425 27.7128 22.36 27.7094C22.2774 27.7059 22.1957 27.7268 22.1249 27.7696C22.0541 27.8123 21.9975 27.8751 21.9619 27.9499C21.9264 28.0247 21.9135 28.1084 21.925 28.1906C21.9364 28.2727 21.9717 28.3496 22.0263 28.4118C22.081 28.4739 22.1526 28.5186 22.2324 28.5402C22.3121 28.5618 22.3965 28.5594 22.4749 28.5333C22.5533 28.5072 22.6223 28.4586 22.6734 28.3934C22.7085 28.3486 22.7342 28.2972 22.749 28.2422C22.7638 28.1871 22.7673 28.1297 22.7595 28.0733C22.7516 28.0168 22.7325 27.9626 22.7032 27.9138C22.6739 27.865 22.6351 27.8226 22.5891 27.7892Z" fill="#F27052"/>
<path d="M49.5804 31.6368C49.5682 31.5541 49.532 31.4769 49.4763 31.4149C49.4205 31.3529 49.3477 31.3089 49.267 31.2884C49.1864 31.2678 49.1015 31.2717 49.023 31.2996C48.9445 31.3275 48.8761 31.378 48.8262 31.4449C48.7763 31.5118 48.7473 31.592 48.7428 31.6754C48.7383 31.7588 48.7585 31.8417 48.8009 31.9136C48.8432 31.9855 48.9058 32.0432 48.9808 32.0794C49.0558 32.1157 49.1398 32.1288 49.2222 32.1171C49.333 32.1007 49.4327 32.041 49.4998 31.951C49.5669 31.861 49.5959 31.7481 49.5804 31.6368Z" fill="#F27052"/>
<path d="M42.5989 22.4259C42.5319 22.3773 42.4523 22.3496 42.3697 22.3461C42.2872 22.3426 42.2055 22.3635 42.1347 22.4063C42.0639 22.4491 42.0072 22.5118 41.9717 22.5866C41.9361 22.6615 41.9233 22.7452 41.9347 22.8273C41.9462 22.9094 41.9814 22.9863 42.0361 23.0485C42.0908 23.1107 42.1624 23.1553 42.2422 23.1769C42.3219 23.1986 42.4062 23.1962 42.4846 23.1701C42.563 23.144 42.6321 23.0953 42.6831 23.0301C42.7186 22.9855 42.7447 22.9341 42.7598 22.879C42.7748 22.8239 42.7785 22.7664 42.7706 22.7098C42.7627 22.6533 42.7434 22.5989 42.7139 22.5501C42.6844 22.5013 42.6452 22.459 42.5989 22.4259Z" fill="#F27052"/>
<path d="M38.8492 20.8674C38.7668 20.8558 38.6828 20.8689 38.6078 20.9051C38.5328 20.9413 38.4702 20.999 38.4278 21.0709C38.3855 21.1428 38.3653 21.2257 38.3698 21.3091C38.3743 21.3925 38.4033 21.4728 38.4532 21.5396C38.503 21.6065 38.5715 21.6571 38.6499 21.6849C38.7284 21.7128 38.8133 21.7167 38.894 21.6962C38.9747 21.6757 39.0475 21.6316 39.1032 21.5696C39.159 21.5076 39.1952 21.4304 39.2073 21.3477C39.2228 21.2364 39.1939 21.1235 39.1268 21.0335C39.0597 20.9436 38.9599 20.8839 38.8492 20.8674Z" fill="#F27052"/>
<path d="M27.4245 22.4278C27.3596 22.479 27.3111 22.5483 27.2851 22.627C27.2591 22.7057 27.2567 22.7904 27.2782 22.8704C27.2998 22.9505 27.3443 23.0224 27.4062 23.0773C27.4681 23.1321 27.5448 23.1675 27.6266 23.179C27.7084 23.1905 27.7918 23.1776 27.8663 23.1419C27.9409 23.1063 28.0034 23.0494 28.046 22.9783C28.0886 22.9073 28.1094 22.8252 28.1059 22.7424C28.1025 22.6595 28.0748 22.5795 28.0264 22.5124C27.9934 22.4658 27.9513 22.4265 27.9027 22.3969C27.8541 22.3673 27.7999 22.3479 27.7436 22.34C27.6873 22.3321 27.6299 22.3358 27.575 22.3509C27.5202 22.366 27.469 22.3921 27.4245 22.4278Z" fill="#F27052"/>
<path d="M20.9248 31.2835C20.8423 31.2717 20.7581 31.2848 20.683 31.3211C20.6079 31.3574 20.5452 31.4152 20.5028 31.4873C20.4604 31.5594 20.4403 31.6424 20.445 31.726C20.4497 31.8095 20.479 31.8898 20.5291 31.9567C20.5793 32.0235 20.648 32.0739 20.7268 32.1015C20.8055 32.1291 20.8905 32.1326 20.9712 32.1117C21.0519 32.0907 21.1246 32.0462 21.1801 31.9837C21.2356 31.9212 21.2714 31.8437 21.2829 31.7608C21.2984 31.6498 21.2693 31.5373 21.2022 31.4478C21.1351 31.3583 21.0353 31.2992 20.9248 31.2835Z" fill="#F27052"/>
<path d="M47.4353 27.7865C47.3703 27.8378 47.3218 27.9071 47.2958 27.9858C47.2698 28.0645 47.2674 28.1491 47.289 28.2292C47.3105 28.3092 47.355 28.3811 47.417 28.436C47.4789 28.4909 47.5555 28.5263 47.6373 28.5378C47.7191 28.5493 47.8025 28.5364 47.8771 28.5007C47.9516 28.465 48.0141 28.4081 48.0567 28.337C48.0993 28.266 48.1202 28.184 48.1167 28.1011C48.1132 28.0183 48.0856 27.9383 48.0371 27.8711C48.0036 27.8253 47.9613 27.7866 47.9127 27.7575C47.864 27.7283 47.8101 27.7093 47.754 27.7014C47.6979 27.6935 47.6408 27.697 47.586 27.7116C47.5313 27.7262 47.48 27.7517 47.4353 27.7865Z" fill="#F27052"/>
<path d="M33.6335 20.3576C33.5511 20.3698 33.4742 20.4061 33.4125 20.4621C33.3507 20.5181 33.3068 20.5912 33.2864 20.6721C33.2659 20.7531 33.2698 20.8383 33.2976 20.9171C33.3253 20.9959 33.3757 21.0646 33.4423 21.1146C33.5089 21.1647 33.5888 21.1938 33.6719 21.1984C33.755 21.2029 33.8376 21.1826 33.9092 21.1401C33.9809 21.0976 34.0383 21.0347 34.0744 20.9594C34.1105 20.8841 34.1236 20.7998 34.112 20.7171C34.0956 20.6059 34.0361 20.5058 33.9465 20.4384C33.8568 20.3711 33.7443 20.3421 33.6335 20.3576Z" fill="#F27052"/>
<path d="M23.97 25.6857C23.903 25.6371 23.8233 25.6093 23.7408 25.6058C23.6583 25.6024 23.5765 25.6233 23.5058 25.6661C23.435 25.7088 23.3783 25.7715 23.3428 25.8464C23.3072 25.9212 23.2944 26.0049 23.3058 26.087C23.3173 26.1692 23.3525 26.2461 23.4072 26.3083C23.4619 26.3704 23.5335 26.4151 23.6133 26.4367C23.693 26.4583 23.7773 26.4559 23.8557 26.4298C23.9341 26.4037 24.0032 26.3551 24.0542 26.2899C24.0889 26.2449 24.1143 26.1935 24.1289 26.1385C24.1434 26.0836 24.1469 26.0263 24.139 25.9699C24.1312 25.9136 24.1122 25.8595 24.0831 25.8107C24.0541 25.7618 24.0156 25.7193 23.97 25.6857Z" fill="#F27052"/>
<path d="M49.611 33.7486C49.5287 33.7608 49.4518 33.7971 49.39 33.8531C49.3282 33.9091 49.2843 33.9822 49.2639 34.0632C49.2434 34.1441 49.2473 34.2294 49.2751 34.3081C49.3029 34.3869 49.3532 34.4556 49.4198 34.5057C49.4865 34.5557 49.5664 34.5849 49.6495 34.5894C49.7326 34.5939 49.8151 34.5736 49.8868 34.5311C49.9584 34.4886 50.0159 34.4257 50.052 34.3504C50.088 34.2752 50.1011 34.1909 50.0895 34.1081C50.0818 34.0529 50.0632 33.9998 50.0349 33.9518C50.0067 33.9038 49.9692 33.8619 49.9248 33.8285C49.8803 33.7951 49.8297 33.7708 49.7758 33.7571C49.722 33.7434 49.666 33.7405 49.611 33.7486Z" fill="#F27052"/>
<path d="M44.6999 23.8131C44.6327 23.7635 44.5523 23.7349 44.4689 23.731C44.3856 23.727 44.3029 23.7477 44.2312 23.7907C44.1596 23.8336 44.1021 23.8968 44.0661 23.9724C44.03 24.048 44.0169 24.1325 44.0285 24.2155C44.0401 24.2984 44.0758 24.3762 44.1311 24.4389C44.1865 24.5016 44.259 24.5465 44.3396 24.5681C44.4203 24.5896 44.5055 24.5868 44.5846 24.56C44.6636 24.5331 44.7331 24.4835 44.7842 24.4173C44.8189 24.3723 44.8443 24.3209 44.8588 24.2659C44.8734 24.211 44.8768 24.1537 44.869 24.0974C44.8611 24.0411 44.8421 23.9869 44.8131 23.9381C44.7841 23.8893 44.7456 23.8468 44.6999 23.8131Z" fill="#F27052"/>
<path d="M36.3879 20.3576C36.2773 20.3421 36.1652 20.3712 36.0761 20.4386C35.9869 20.506 35.928 20.6062 35.9124 20.7171C35.9007 20.7999 35.9137 20.8844 35.9499 20.9598C35.986 21.0352 36.0436 21.0982 36.1154 21.1407C36.1872 21.1832 36.27 21.2034 36.3532 21.1987C36.4364 21.194 36.5164 21.1646 36.583 21.1143C36.6496 21.0639 36.6998 20.9949 36.7273 20.9159C36.7548 20.8369 36.7583 20.7515 36.7374 20.6705C36.7165 20.5895 36.6722 20.5165 36.6099 20.4608C36.5477 20.4051 36.4704 20.3692 36.3879 20.3576Z" fill="#F27052"/>
<path d="M25.3278 23.8145C25.2629 23.8658 25.2144 23.935 25.1884 24.0137C25.1624 24.0924 25.16 24.1771 25.1816 24.2571C25.2031 24.3372 25.2476 24.4091 25.3095 24.464C25.3715 24.5189 25.4481 24.5543 25.5299 24.5657C25.6117 24.5772 25.6951 24.5643 25.7696 24.5287C25.8442 24.493 25.9067 24.4361 25.9493 24.365C25.9919 24.294 26.0127 24.212 26.0093 24.1291C26.0058 24.0463 25.9781 23.9663 25.9297 23.8991C25.8967 23.8526 25.8546 23.8133 25.806 23.7836C25.7574 23.754 25.7033 23.7346 25.6469 23.7267C25.5906 23.7188 25.5332 23.7225 25.4784 23.7376C25.4235 23.7527 25.3723 23.7788 25.3278 23.8145Z" fill="#F27052"/>
<path d="M20.4166 33.7502C20.3342 33.7386 20.2502 33.7517 20.1752 33.7879C20.1002 33.8241 20.0376 33.8818 19.9952 33.9537C19.9528 34.0256 19.9326 34.1085 19.9371 34.1919C19.9417 34.2754 19.9707 34.3556 20.0205 34.4224C20.0704 34.4893 20.1389 34.5399 20.2173 34.5677C20.2958 34.5956 20.3807 34.5995 20.4614 34.579C20.542 34.5585 20.6148 34.5144 20.6706 34.4524C20.7264 34.3904 20.7626 34.3132 20.7747 34.2305C20.7828 34.1754 20.7799 34.1192 20.7663 34.0651C20.7526 34.0111 20.7284 33.9602 20.6952 33.9156C20.6619 33.871 20.6201 33.8334 20.5723 33.805C20.5245 33.7766 20.4716 33.758 20.4166 33.7502Z" fill="#F27052"/>
<path d="M46.0534 25.6823C45.9885 25.7336 45.94 25.8029 45.914 25.8816C45.888 25.9603 45.8856 26.0449 45.9071 26.125C45.9287 26.205 45.9732 26.277 46.0351 26.3318C46.097 26.3867 46.1737 26.4221 46.2555 26.4336C46.3373 26.4451 46.4207 26.4322 46.4952 26.3965C46.5698 26.3608 46.6323 26.3039 46.6749 26.2329C46.7175 26.1618 46.7383 26.0798 46.7349 25.9969C46.7314 25.9141 46.7037 25.8341 46.6553 25.7669C46.622 25.7207 46.5798 25.6818 46.5312 25.6524C46.4826 25.623 46.4285 25.6038 46.3723 25.5959C46.3161 25.588 46.2589 25.5916 46.2041 25.6064C46.1493 25.6213 46.098 25.6471 46.0534 25.6823Z" fill="#F27052"/>
<path d="M1.30009 35.4971C2.06627 34.9328 2.99863 34.6425 3.94841 34.6723C4.44224 34.708 4.93238 34.7838 5.41402 34.8989C5.6307 34.9442 5.85038 34.9895 6.06406 35.0288C6.86017 35.2139 7.69095 35.1836 8.47162 34.9412C9.09949 34.6645 9.67011 34.272 10.1539 33.7842C10.5549 33.3742 11.0258 33.0396 11.5443 32.7963C11.9522 32.6618 12.3764 32.5835 12.8052 32.5637C13.1286 32.5371 13.4501 32.4917 13.7683 32.4278C14.4298 32.2838 15.0483 31.9858 15.5739 31.5578C15.9346 31.8201 16.2464 32.1443 16.4948 32.5154C16.5909 32.6596 16.6485 32.8261 16.6622 32.9991C16.6759 33.172 16.6452 33.3456 16.5731 33.5032C16.3682 33.7539 16.1001 33.9448 15.7966 34.0561C15.3686 34.2275 14.9929 34.5087 14.7072 34.8717C14.3879 34.6775 14.0117 34.5997 13.6419 34.6512C13.1724 34.6965 12.721 34.8687 12.2515 34.9352C11.7339 35.0107 11.2042 34.9623 10.6866 35.059C10.3974 35.112 10.1237 35.2297 9.88607 35.4034C9.67778 35.2679 9.43287 35.2004 9.18487 35.2101C8.92891 35.2247 8.6843 35.321 8.48667 35.485H15.3332C15.3531 35.4356 15.3772 35.3881 15.4054 35.343C15.6142 35.1063 15.8778 34.9248 16.1728 34.8143C16.6241 34.6384 17.0143 34.3339 17.2954 33.9382C17.4486 33.6519 17.5232 33.3297 17.5115 33.0048C17.4999 32.68 17.4024 32.3641 17.2291 32.0894C16.9314 31.6293 16.5531 31.2271 16.1126 30.9022C15.7515 30.6385 15.438 30.3146 15.1857 29.9446C15.0448 29.6806 14.9357 29.4007 14.8607 29.1108C14.7582 28.7124 14.5969 28.3315 14.3822 27.981C13.9067 27.268 13.0972 26.9146 12.5284 26.7122C12.3689 26.6548 12.2064 26.6004 12.0469 26.5491C11.5926 26.4201 11.1552 26.2375 10.7438 26.0053C10.3874 25.7948 10.1158 25.4656 9.97635 25.0748C10.352 24.8964 10.7783 24.8568 11.1801 24.9631C11.6355 25.0902 12.074 25.2718 12.4862 25.5038C12.6367 25.5793 12.7872 25.6579 12.9407 25.7304C13.4854 25.9902 14.307 26.3164 15.1466 26.1473C15.5445 26.0518 15.926 25.8971 16.2782 25.6881C16.5355 25.5375 16.8091 25.4169 17.0937 25.3286C17.5327 25.2452 17.9828 25.2391 18.4239 25.3105C18.9652 25.3937 19.517 25.3763 20.052 25.2591C20.3687 25.1899 20.661 25.0364 20.8982 24.8148C21.1354 24.5931 21.3088 24.3115 21.4003 23.9994C21.4798 23.5208 21.418 23.0294 21.2227 22.5856C21.0947 22.3015 21.0368 21.9906 21.0542 21.6793C21.0633 21.626 21.0795 21.5742 21.1023 21.5252C21.1505 21.5042 21.201 21.489 21.2528 21.4799C21.5627 21.4612 21.8725 21.5182 22.1556 21.6461C22.598 21.845 23.0891 21.9081 23.5671 21.8273C23.877 21.7327 24.1564 21.5574 24.3769 21.3191C24.5973 21.0808 24.7509 20.7882 24.822 20.4709C24.9363 19.9346 24.9526 19.3818 24.8702 18.8396C24.7991 18.3969 24.8052 17.9451 24.8882 17.5044C24.9741 17.217 25.0944 16.9411 25.2463 16.6827C25.4533 16.3285 25.6074 15.9458 25.7038 15.5468C25.8693 14.704 25.5443 13.8793 25.2855 13.3325C25.2132 13.1784 25.138 13.0304 25.0598 12.8733C24.8321 12.4627 24.6533 12.0267 24.5271 11.5743C24.4228 11.1708 24.4621 10.7434 24.6384 10.3659C25.0277 10.5059 25.3557 10.7785 25.5653 11.1363C25.798 11.5487 25.9799 11.9879 26.107 12.4443C26.1612 12.6075 26.2124 12.7676 26.2696 12.9277C26.4742 13.4986 26.8263 14.3143 27.5365 14.7916C27.8855 15.0049 28.2637 15.1657 28.6591 15.2689C28.9486 15.3447 29.2284 15.4542 29.4927 15.5952C29.8599 15.85 30.1823 16.1645 30.4467 16.5256C30.7696 16.9675 31.1705 17.3464 31.6294 17.6433C31.9027 17.8178 32.2173 17.9161 32.5409 17.9283C32.8646 17.9406 33.1856 17.8662 33.4712 17.7128C33.8655 17.4296 34.1689 17.0369 34.3439 16.583C34.4548 16.2881 34.6355 16.0247 34.8706 15.8157C34.9147 15.7852 34.9622 15.7599 35.012 15.7402C35.061 15.7598 35.1074 15.7852 35.1505 15.8157C35.3855 16.0253 35.5672 16.2884 35.6801 16.583C35.8533 17.0363 36.1559 17.4282 36.5499 17.7098C36.8345 17.8658 37.1558 17.9419 37.4798 17.9302C37.8039 17.9185 38.1189 17.8194 38.3917 17.6433C38.8514 17.3464 39.2533 16.9676 39.5774 16.5256C39.7759 16.2066 40.0362 15.9308 40.3427 15.7144C40.6492 15.4981 40.9958 15.3455 41.362 15.2659C41.759 15.1648 42.1385 15.0038 42.4875 14.7886C43.1978 14.3113 43.5469 13.4956 43.7515 12.9277C43.8087 12.7676 43.8598 12.6044 43.914 12.4413C44.0412 11.9849 44.2231 11.5457 44.4557 11.1332C44.6655 10.7775 44.9922 10.5062 45.3796 10.3659C45.5582 10.7427 45.5987 11.1705 45.494 11.5743C45.3665 12.0311 45.1857 12.4712 44.9553 12.8854C44.877 13.0364 44.8018 13.1875 44.7296 13.3415C44.4708 13.8883 44.1457 14.713 44.3113 15.5559C44.4074 15.9555 44.5626 16.3383 44.7717 16.6918C44.9214 16.9513 45.0415 17.2269 45.1298 17.5134C45.2099 17.9544 45.216 18.4057 45.1479 18.8487C45.0655 19.3909 45.0818 19.9436 45.196 20.48C45.2671 20.7972 45.4207 21.0899 45.6412 21.3282C45.8616 21.5664 46.1411 21.7418 46.451 21.8364C46.929 21.9169 47.42 21.8539 47.8624 21.6551C48.1456 21.5275 48.4554 21.4705 48.7653 21.489C48.8169 21.4985 48.8674 21.5137 48.9157 21.5343C48.9368 21.5829 48.9529 21.6335 48.9639 21.6854C48.9817 21.9967 48.9239 22.3077 48.7954 22.5916C48.6001 23.0365 48.5384 23.5289 48.6178 24.0084C48.7115 24.3199 48.886 24.6007 49.1234 24.822C49.3609 25.0434 49.6527 25.1974 49.969 25.2682C50.5034 25.3829 51.054 25.3993 51.5942 25.3165C52.0355 25.2482 52.485 25.2543 52.9243 25.3346C53.2085 25.4241 53.482 25.5446 53.7399 25.6941C54.0928 25.9046 54.4753 26.0604 54.8745 26.1563C55.7141 26.3225 56.5327 25.9962 57.0774 25.7364C57.2309 25.6639 57.3783 25.5854 57.5348 25.5099C57.9466 25.2768 58.3852 25.0952 58.8409 24.9691C59.2427 24.8623 59.6692 24.9019 60.0447 25.0809C59.9062 25.4721 59.6344 25.8017 59.2773 26.0113C58.8658 26.2436 58.4284 26.4261 57.9742 26.5551C57.8117 26.6064 57.6522 26.6608 57.4927 26.7182C56.9239 26.9206 56.1144 27.2741 55.6389 27.987C55.4244 28.3373 55.2641 28.7183 55.1634 29.1168C55.087 29.4063 54.978 29.686 54.8383 29.9506C54.5861 30.3196 54.2738 30.6434 53.9144 30.9083C53.4725 31.2326 53.094 31.6362 52.7979 32.0985C52.6246 32.3731 52.5272 32.689 52.5155 33.0139C52.5039 33.3388 52.5785 33.6609 52.7317 33.9473C53.0134 34.3429 53.4048 34.6465 53.8573 34.8204C54.1513 34.9327 54.4136 35.1152 54.6217 35.352C54.6509 35.396 54.6761 35.4425 54.6969 35.491H61.5374C61.3398 35.3271 61.0952 35.2308 60.8392 35.2161C60.5909 35.2036 60.3451 35.2713 60.138 35.4094C59.9013 35.234 59.6273 35.1161 59.3375 35.0651C58.8229 34.9684 58.2902 35.0167 57.7726 34.9412C57.3031 34.8747 56.8517 34.7025 56.3822 34.6572C56.0124 34.6057 55.6362 34.6836 55.3168 34.8778C55.0303 34.5157 54.6549 34.2346 54.2274 34.0621C53.9244 33.9517 53.6562 33.7619 53.451 33.5123C53.3781 33.355 53.3468 33.1815 53.3599 33.0085C53.3731 32.8355 53.4304 32.6688 53.5262 32.5245C53.7747 32.1534 54.0865 31.8292 54.4471 31.5668C54.9722 31.9958 55.5909 32.294 56.2528 32.4368C56.5717 32.5013 56.8944 32.5457 57.2188 32.5698C57.7213 32.5679 58.2183 32.675 58.6759 32.8835C59.1334 33.092 59.5408 33.3972 59.8702 33.7781C60.3538 34.2676 60.9257 34.6602 61.5555 34.9352C62.3359 35.1788 63.167 35.209 63.963 35.0228C64.1827 34.9835 64.3994 34.9382 64.6161 34.8929C65.0967 34.778 65.5859 34.7022 66.0787 34.6663C67.0294 34.636 67.9629 34.9264 68.73 35.491H68.715H70L69.6659 35.1889C68.6815 34.2741 67.3774 33.7856 66.0365 33.8295C65.4952 33.8659 64.9577 33.9467 64.4295 34.0712C64.2218 34.1165 64.0112 34.1618 63.8005 34.198C63.1571 34.3595 62.4821 34.3428 61.8474 34.1497C61.3195 33.9078 60.8401 33.5709 60.4329 33.1558C59.9565 32.6775 59.3977 32.2896 58.7837 32.0109C58.3053 31.8423 57.8061 31.7407 57.3001 31.7088C57.0082 31.686 56.7178 31.6467 56.4304 31.591C55.9454 31.487 55.488 31.2811 55.0881 30.9868C55.2695 30.8055 55.4282 30.6026 55.5606 30.3826C55.7345 30.0615 55.8699 29.7207 55.9639 29.3676C56.0435 29.0493 56.1682 28.7441 56.334 28.4613C56.6711 27.9568 57.3151 27.6819 57.7696 27.5188L58.23 27.3647C58.7552 27.2161 59.2605 27.0041 59.7347 26.7333C60.0627 26.5469 60.3425 26.2857 60.5516 25.9709C60.7607 25.6561 60.8932 25.2964 60.9385 24.9208V24.7123L60.785 24.5734C60.4886 24.3397 60.1416 24.1791 59.7721 24.1046C59.4025 24.0301 59.0207 24.0437 58.6573 24.1444C58.1333 24.2839 57.628 24.4868 57.1526 24.7486L56.7162 24.9631C56.2799 25.1715 55.6298 25.4343 55.037 25.3165C54.7193 25.2356 54.4151 25.1084 54.1341 24.9389C53.8174 24.7574 53.4812 24.6125 53.132 24.5069C52.8846 24.447 52.6311 24.4166 52.3766 24.4163C52.4479 23.9226 52.6233 23.4498 52.8912 23.0297C53.0553 22.786 53.2332 22.552 53.4239 22.3288C53.7613 21.9504 54.0458 21.5276 54.2696 21.0721C54.5061 20.4394 54.6274 19.7692 54.6277 19.0934C54.6238 18.5108 54.7258 17.9324 54.9286 17.3866C55.2446 16.7998 55.7111 16.3086 56.2799 15.9637C56.4544 15.8429 56.632 15.7251 56.8125 15.6072C57.2751 15.3226 57.7121 14.9981 58.1187 14.6375C59.0966 13.7174 59.674 12.4475 59.7257 11.103L59.7438 10.6469H59.2893C57.9485 10.6987 56.6821 11.2795 55.7653 12.2631C55.4079 12.6727 55.0848 13.1112 54.7992 13.5742C54.6849 13.7554 54.5675 13.9336 54.4441 14.1119C54.097 14.6773 53.6096 15.1426 53.0297 15.4622C52.4852 15.6672 51.9078 15.7696 51.3263 15.7643C50.6528 15.7644 49.9849 15.8872 49.3551 16.1268C48.901 16.3493 48.4806 16.6351 48.1062 16.9757C47.8838 17.1662 47.6507 17.3438 47.408 17.5074C46.9894 17.7768 46.5186 17.9539 46.0267 18.027C46.0263 17.7716 45.996 17.5171 45.9364 17.2687C45.8336 16.9173 45.6891 16.5796 45.506 16.2628C45.3372 15.9808 45.2105 15.6754 45.1298 15.3565C45.0125 14.7523 45.2743 14.1089 45.4789 13.6678C45.5481 13.5228 45.6234 13.3657 45.6956 13.2328C45.9568 12.7558 46.1589 12.2485 46.2975 11.7223C46.3973 11.358 46.4106 10.9753 46.3364 10.6049C46.2622 10.2345 46.1025 9.88677 45.8702 9.58954L45.7317 9.43246H45.5271C45.1524 9.47628 44.7934 9.60865 44.4795 9.8187C44.1656 10.0287 43.9058 10.3105 43.7214 10.6408C43.4543 11.1256 43.2491 11.6422 43.1105 12.1785C43.0593 12.3325 43.0112 12.4806 42.954 12.6407C42.7915 13.0999 42.5176 13.7463 42.0181 14.0847C41.7357 14.25 41.4319 14.375 41.1152 14.4563C40.7637 14.5514 40.4243 14.6872 40.104 14.8611C39.8851 14.9942 39.683 15.1534 39.5022 15.3354C39.2086 14.9342 39.0035 14.4749 38.9003 13.988C38.8461 13.6992 38.8069 13.4078 38.7829 13.115C38.7574 12.6076 38.6611 12.1062 38.497 11.6257C38.2214 11.0098 37.8359 10.4497 37.3594 9.9732C36.9441 9.56537 36.6074 9.08401 36.3663 8.55336C36.1817 7.91396 36.1651 7.2375 36.3181 6.58976C36.3543 6.37829 36.3994 6.16683 36.4445 5.95838C36.5687 5.4282 36.6493 4.88865 36.6853 4.34521C36.7252 3.00527 36.2388 1.70329 35.331 0.720089L35.0301 0.384766L34.7291 0.720089C33.8194 1.70937 33.3331 3.01768 33.3749 4.36333C33.4121 4.90584 33.4937 5.44436 33.6187 5.97349C33.6638 6.18495 33.7059 6.3934 33.7451 6.60486C33.9028 7.25209 33.8862 7.92982 33.6969 8.56847C33.4558 9.09912 33.1191 9.58048 32.7038 9.98831C32.2273 10.4659 31.8417 11.027 31.5662 11.6438C31.3963 12.1235 31.295 12.6249 31.2653 13.1331C31.2428 13.4251 31.2036 13.7156 31.1479 14.0031C31.0402 14.4912 30.8298 14.9506 30.531 15.3505C30.3501 15.1695 30.148 15.0112 29.9291 14.8792C29.6094 14.7041 29.2699 14.5682 28.9179 14.4744C28.6008 14.393 28.2968 14.2669 28.015 14.0998C27.5125 13.7645 27.2386 13.118 27.0761 12.6588C27.0219 12.5047 26.9708 12.3567 26.9196 12.1966C26.7701 11.6628 26.5559 11.1494 26.2816 10.668C26.097 10.3378 25.8371 10.0562 25.5233 9.84619C25.2095 9.63617 24.8505 9.50371 24.4759 9.45964H24.2683L24.1328 9.61673C23.9005 9.91396 23.7408 10.2617 23.6666 10.6321C23.5924 11.0025 23.6057 11.3852 23.7055 11.7495C23.842 12.2764 24.0442 12.7839 24.3074 13.26C24.3796 13.405 24.4549 13.5621 24.5241 13.698C24.7317 14.1391 24.9936 14.7916 24.8762 15.3867C24.7937 15.705 24.667 16.0101 24.5 16.293C24.3168 16.6087 24.1723 16.9454 24.0696 17.2959C24.0087 17.544 23.9784 17.7987 23.9794 18.0542C23.4864 17.9835 23.0143 17.8074 22.595 17.5376C22.3521 17.3756 22.1199 17.198 21.8998 17.0059C21.4753 16.5913 20.9696 16.2698 20.4148 16.0618C19.8599 15.8537 19.268 15.7638 18.6767 15.7976C18.0962 15.8029 17.5197 15.7005 16.9764 15.4955C16.3906 15.1813 15.9008 14.7136 15.5589 14.1421C15.4355 13.9669 15.3181 13.7886 15.2038 13.6074C14.9191 13.1438 14.596 12.7052 14.2377 12.2963C13.3244 11.3097 12.0602 10.7246 10.7197 10.668H10.2653L10.2833 11.1242C10.3372 12.4696 10.9154 13.74 11.8934 14.6617C12.3008 15.0204 12.7377 15.3438 13.1995 15.6284C13.377 15.7462 13.5576 15.864 13.7322 15.9849C14.3001 16.3298 14.7656 16.8211 15.0804 17.4077C15.2832 17.9536 15.3852 18.532 15.3813 19.1145C15.3786 19.7906 15.5 20.4614 15.7395 21.0932C15.9632 21.5495 16.2488 21.9724 16.5881 22.35C16.777 22.5739 16.9538 22.8079 17.1178 23.0508C17.387 23.4703 17.5625 23.9434 17.6324 24.4374C17.3779 24.4364 17.1242 24.4669 16.877 24.528C16.5281 24.6318 16.1927 24.7768 15.8779 24.96C15.5959 25.1275 15.2921 25.2546 14.9751 25.3377C14.3732 25.4555 13.7322 25.1927 13.2958 24.9842L12.8594 24.7697C12.3847 24.5066 11.8792 24.3036 11.3547 24.1655C10.9915 24.0634 10.6093 24.049 10.2395 24.1236C9.86972 24.1981 9.52275 24.3595 9.227 24.5945L9.07351 24.7304V24.9389C9.11881 25.3145 9.25134 25.6742 9.46042 25.989C9.6695 26.3039 9.9493 26.565 10.2773 26.7515C10.7455 27.0209 11.2448 27.232 11.764 27.3798L12.2274 27.5369C12.6819 27.7 13.3259 27.9749 13.6629 28.4794C13.8286 28.7627 13.9542 29.0677 14.0361 29.3857C14.1301 29.7389 14.2654 30.0796 14.4394 30.4007C14.571 30.6212 14.7297 30.8242 14.9119 31.0049C14.5119 31.301 14.0531 31.5071 13.5666 31.6091C13.2802 31.665 12.9908 31.7043 12.6999 31.7269C12.1946 31.7537 11.6953 31.8502 11.2163 32.0139C10.6023 32.2926 10.0435 32.6805 9.56707 33.1588C9.16079 33.5758 8.68126 33.9138 8.15262 34.1558C7.51639 34.3458 6.84125 34.3625 6.19647 34.2041C5.98882 34.1648 5.77816 34.1225 5.57051 34.0772C5.04256 33.9513 4.50497 33.8705 3.96346 33.8355C2.62259 33.7917 1.31853 34.2801 0.33405 35.195L0 35.4971H1.28203H1.30009ZM45.9875 18.9152C46.6597 18.8451 47.306 18.6174 47.8745 18.2506C48.1444 18.0639 48.4036 17.8622 48.6509 17.6464C48.9681 17.3554 49.3235 17.1095 49.7072 16.9153C50.2449 16.7163 50.8134 16.614 51.3865 16.6132C52.0724 16.6158 52.7525 16.4877 53.3908 16.2356C54.1103 15.8551 54.7167 15.2902 55.1483 14.5982C55.2747 14.414 55.3951 14.2297 55.5155 14.0424C55.7741 13.6156 56.0681 13.2114 56.3942 12.834C57.0504 12.1516 57.9146 11.7083 58.8499 11.5743C58.7046 12.517 58.249 13.3837 57.5559 14.0364C57.1799 14.3628 56.7772 14.6568 56.3521 14.9154C56.1655 15.0363 55.9819 15.1601 55.8014 15.287C55.1101 15.7198 54.5453 16.3285 54.1642 17.0512C53.9154 17.6925 53.7888 18.375 53.791 19.0632C53.79 19.6384 53.6881 20.209 53.4901 20.7489C53.2978 21.1339 53.0537 21.4907 52.7648 21.8092C52.5531 22.0563 52.3571 22.3167 52.178 22.5886C51.8111 23.1599 51.5833 23.8098 51.5129 24.4858C51.0725 24.5552 50.6234 24.547 50.1857 24.4616C50.0159 24.4277 49.8577 24.3504 49.7264 24.2372C49.5952 24.1239 49.4952 23.9785 49.4364 23.8151C49.4051 23.4933 49.4602 23.1689 49.5959 22.8756C49.7797 22.4521 49.8472 21.9868 49.7915 21.5283C50.1524 21.4364 50.4711 21.2232 50.6943 20.9241C50.9953 20.5555 51.1939 20.1145 51.4768 19.7338C51.7597 19.3532 52.1991 18.9695 52.497 18.5255C52.6661 18.2833 52.7773 18.0052 52.822 17.7128C53.0692 17.6616 53.2933 17.5316 53.4609 17.3422C53.6284 17.1527 53.7305 16.914 53.7519 16.6615C53.5004 16.683 53.2626 16.7855 53.0739 16.9537C52.8852 17.1219 52.7556 17.3469 52.7046 17.595C52.4138 17.6412 52.137 17.7527 51.8951 17.9213C51.4647 18.2234 51.1217 18.6312 50.6913 18.9454C50.261 19.2595 49.8727 19.4287 49.5056 19.7308C49.2089 19.9561 48.9967 20.2755 48.9037 20.6371C48.4459 20.5829 47.9819 20.6507 47.5585 20.8334C47.2663 20.9697 46.9432 21.025 46.6225 20.9936C46.4596 20.9347 46.3146 20.8345 46.2017 20.7027C46.0889 20.5708 46.012 20.4119 45.9785 20.2413C45.9048 19.8021 45.9078 19.3533 45.9875 18.9152ZM31.9574 14.1602C32.0199 13.8408 32.0641 13.518 32.0899 13.1935C32.1111 12.7632 32.189 12.3375 32.3216 11.9277C32.5661 11.4085 32.8991 10.9362 33.3057 10.5321C33.7924 10.0459 34.1834 9.47197 34.4583 8.84035C34.7004 8.0568 34.7305 7.2227 34.5456 6.42361C34.5064 6.2061 34.4613 5.98859 34.4162 5.77109C34.2988 5.28815 34.2232 4.79591 34.1904 4.29989C34.1605 3.34694 34.4487 2.41128 35.009 1.64147C35.578 2.41613 35.8668 3.36242 35.8276 4.32406C35.7946 4.81886 35.7201 5.30999 35.6049 5.79223C35.5598 6.01276 35.5146 6.23027 35.4755 6.44777C35.2905 7.24687 35.3207 8.08096 35.5628 8.86452C35.8358 9.49624 36.2271 10.0695 36.7154 10.5532C37.1176 10.9516 37.4485 11.4166 37.6935 11.9277C37.8275 12.3361 37.9054 12.761 37.9252 13.1905C37.9507 13.516 37.9949 13.8398 38.0576 14.1602C38.2013 14.8241 38.4982 15.4449 38.9243 15.9728C38.6629 16.3348 38.34 16.6477 37.9703 16.8972C37.8267 16.9939 37.6606 17.0517 37.4882 17.065C37.3157 17.0782 37.1428 17.0464 36.9862 16.9727C36.7384 16.7665 36.5486 16.4988 36.4355 16.1963C36.2675 15.7659 35.988 15.3884 35.626 15.1027C35.818 14.7816 35.8955 14.4045 35.8456 14.0333C35.7975 13.559 35.629 13.1059 35.5447 12.6377C35.4695 12.1181 35.5176 11.5834 35.4243 11.0668C35.3727 10.7761 35.2553 10.5012 35.0813 10.2632C35.2211 10.0516 35.2885 9.80012 35.2733 9.54669C35.2581 9.29326 35.1611 9.05168 34.997 8.85848C34.8343 9.05247 34.7384 9.2941 34.7238 9.54729C34.7091 9.80047 34.7765 10.0516 34.9157 10.2632C34.7417 10.5012 34.6243 10.7761 34.5727 11.0668C34.4794 11.5834 34.5275 12.1181 34.4523 12.6377C34.3831 13.1089 34.2145 13.5439 34.1664 14.0333C34.1177 14.4048 34.1962 14.7819 34.3891 15.1027C34.0253 15.3874 33.7446 15.7651 33.5765 16.1963C33.4664 16.5004 33.2761 16.7688 33.0258 16.9727C32.8692 17.0464 32.6963 17.0782 32.5238 17.065C32.3514 17.0517 32.1853 16.9939 32.0417 16.8972C31.672 16.6478 31.349 16.3348 31.0877 15.9728C31.5141 15.4447 31.8119 14.8241 31.9574 14.1602ZM17.2291 21.8001C16.9416 21.4806 16.6977 21.124 16.5039 20.7398C16.3059 20.2 16.204 19.6294 16.2029 19.0541C16.2055 18.3656 16.0779 17.6829 15.8267 17.0422C15.4476 16.319 14.8836 15.7101 14.1926 15.278C14.012 15.1511 13.8255 15.0272 13.6389 14.9064C13.2142 14.647 12.8116 14.353 12.4351 14.0273C11.742 13.3747 11.2864 12.5079 11.141 11.5652C12.0804 11.7105 12.944 12.1679 13.5937 12.8642C13.9199 13.2416 14.2138 13.6458 14.4725 14.0726C14.5929 14.2569 14.7132 14.4442 14.8396 14.6254C15.2809 15.3187 15.8979 15.8817 16.6273 16.2567C17.2655 16.5089 17.9457 16.637 18.6316 16.6344C19.2049 16.6327 19.7738 16.7351 20.3108 16.9364C20.6936 17.131 21.0488 17.3758 21.3672 17.6645C21.6129 17.8763 21.8712 18.0731 22.1406 18.2536C22.7099 18.6209 23.3573 18.8486 24.0305 18.9182C24.1006 19.3591 24.0935 19.8089 24.0095 20.2474C23.9757 20.4178 23.8987 20.5766 23.7859 20.7084C23.673 20.8402 23.5282 20.9405 23.3654 20.9996C23.0451 21.0319 22.7219 20.9777 22.4295 20.8425C22.007 20.6562 21.5424 20.5873 21.0843 20.6431C20.991 20.2816 20.7789 19.9623 20.4824 19.7369C20.1152 19.4348 19.6788 19.2354 19.2997 18.9544C18.9205 18.6735 18.5383 18.2264 18.0959 17.9303C17.8548 17.7601 17.5777 17.6484 17.2863 17.6041C17.2362 17.3601 17.1109 17.1382 16.9282 16.9697C16.7365 16.7977 16.495 16.6918 16.239 16.6676C16.2595 16.9211 16.3616 17.1611 16.5299 17.3513C16.6982 17.5415 16.9235 17.6716 17.172 17.7219C17.2161 18.0134 17.3274 18.2907 17.497 18.5315C17.7979 18.9665 18.2042 19.3079 18.5172 19.7399C18.8302 20.1719 18.9987 20.5585 19.2966 20.9271C19.5212 21.2248 19.8394 21.4377 20.1995 21.5313C20.1465 21.9911 20.215 22.4568 20.3981 22.8816C20.5328 23.1752 20.5879 23.4993 20.5576 23.8211C20.4981 23.9838 20.3979 24.1285 20.2667 24.2411C20.1354 24.3538 19.9776 24.4307 19.8083 24.4646C19.3708 24.5514 18.9214 24.5596 18.4811 24.4888C18.4108 23.8141 18.1841 23.1654 17.819 22.5947C17.6384 22.3182 17.4415 22.0529 17.2291 21.8001Z" fill="#F27052"/>
<path d="M19.2005 35.4945C19.2031 34.7383 19.2584 33.9832 19.366 33.2348C19.5184 32.1539 19.7827 31.0918 20.1545 30.0659C20.2327 29.8483 20.314 29.6339 20.4043 29.4194C20.4945 29.2049 20.5848 28.9934 20.6811 28.785C21.4628 27.1058 22.5289 25.5757 23.832 24.2626C24.3646 23.7277 24.9349 23.232 25.5384 22.7794C26.4087 22.1245 27.3435 21.5606 28.3282 21.0967C28.5358 21 28.7465 20.9064 28.9602 20.8188C29.1738 20.7312 29.3875 20.6466 29.6042 20.568C30.6265 20.1952 31.6844 19.9289 32.7611 19.7735C34.2579 19.5549 35.7784 19.5549 37.2753 19.7735C38.3517 19.9287 39.4095 20.1939 40.4322 20.565C40.6459 20.6436 40.8626 20.7282 41.0762 20.8188C41.2899 20.9094 41.5006 21 41.7052 21.0967C42.6917 21.5577 43.6277 22.1207 44.498 22.7763C46.5831 24.35 48.2477 26.4174 49.3432 28.794C49.4425 29.0025 49.5328 29.214 49.6231 29.4284C49.7134 29.6429 49.7946 29.8574 49.8729 30.0719C50.2444 31.099 50.5087 32.162 50.6614 33.2439C50.769 33.9913 50.8243 34.7453 50.8269 35.5005H51.6695C51.6695 34.7049 51.6122 33.9103 51.498 33.123C51.3488 32.0871 51.103 31.0676 50.7637 30.0779C51.0379 29.8001 51.3655 29.5811 51.7267 29.4345C52.3015 29.1868 52.9305 29.0267 53.421 28.646C53.9116 28.2654 54.2336 27.7035 54.697 27.3168C54.0951 27.3712 53.4662 27.205 52.8583 27.2836C52.2504 27.3621 51.6846 27.6944 51.1037 27.927C50.7462 28.0806 50.3611 28.1587 49.9722 28.1566C49.5127 27.217 48.9677 26.322 48.3441 25.4831C47.8701 24.8426 47.3511 24.2369 46.7912 23.6705C46.2263 23.1083 45.6229 22.5864 44.9855 22.1087C44.1502 21.483 43.2585 20.9369 42.3221 20.4774C42.3201 20.0871 42.3979 19.7004 42.5509 19.3415C42.7826 18.7585 43.1106 18.2027 43.1919 17.5803C43.2731 16.958 43.1046 16.3357 43.1588 15.7346C42.7736 16.1998 42.2078 16.5291 41.8346 17.0154C41.4614 17.5018 41.2959 18.1392 41.0491 18.7162C40.9049 19.0797 40.6865 19.409 40.4081 19.6829C39.4279 19.3431 38.4185 19.0954 37.3927 18.9428C36.608 18.8311 35.8167 18.7736 35.0242 18.7706C33.1815 18.7753 31.3518 19.0814 29.6072 19.6769C29.3308 19.4031 29.1136 19.0751 28.9692 18.7132C28.7224 18.1362 28.5629 17.5048 28.1807 17.0124C27.7985 16.52 27.2417 16.1968 26.8565 15.7285C26.9137 16.3327 26.7452 16.9671 26.8265 17.5773C26.9077 18.1876 27.2357 18.7555 27.4675 19.3355C27.6206 19.6953 27.6975 20.0832 27.6932 20.4744C26.7577 20.9339 25.8671 21.48 25.0328 22.1057C24.3954 22.5834 23.792 23.1053 23.2271 23.6675C22.6672 24.2339 22.1483 24.8396 21.6743 25.4801C21.0516 26.319 20.5075 27.214 20.0491 28.1536C19.6595 28.1565 19.2734 28.0794 18.9146 27.927C18.3338 27.6944 17.78 27.3621 17.1601 27.2836C16.5401 27.205 15.9232 27.3712 15.3213 27.3168C15.7847 27.7035 16.1158 28.2684 16.6003 28.643C17.0848 29.0176 17.7198 29.1868 18.2946 29.4345C18.6551 29.5794 18.9819 29.7974 19.2547 30.0749C18.9171 31.0649 18.6722 32.0844 18.5234 33.12C18.4093 33.9083 18.3519 34.7039 18.3518 35.5005H19.1945L19.2005 35.4945Z" fill="#F27052"/>
<path d="M35.0095 3.55859C34.8623 3.88138 34.7861 4.23222 34.7861 4.58722C34.7861 4.94222 34.8623 5.29306 35.0095 5.61585C35.1575 5.29328 35.2342 4.94236 35.2342 4.58722C35.2342 4.23209 35.1575 3.88116 35.0095 3.55859Z" fill="#F27052"/>
<path d="M57.5043 12.9102C57.172 13.0332 56.8703 13.2271 56.6198 13.4784C56.3694 13.7298 56.1763 14.0327 56.0537 14.3662C56.3857 14.2427 56.6871 14.0486 56.9375 13.7973C57.1878 13.546 57.3812 13.2434 57.5043 12.9102Z" fill="#F27052"/>
<path d="M66.8219 35.4872C66.5006 35.3386 66.151 35.2617 65.7972 35.2617C65.4434 35.2617 65.0938 35.3386 64.7725 35.4872H64.7965H66.8008H66.8219Z" fill="#F27052"/>
<path d="M5.25452 35.4911C4.93318 35.3425 4.58358 35.2656 4.2298 35.2656C3.87601 35.2656 3.52642 35.3425 3.20508 35.4911H5.25452Z" fill="#F27052"/>
<path d="M12.5195 12.916C12.6419 13.2491 12.8347 13.5518 13.0845 13.8031C13.3344 14.0544 13.6355 14.2485 13.9671 14.3721C13.8447 14.039 13.6519 13.7364 13.4021 13.485C13.1522 13.2337 12.8511 13.0396 12.5195 12.916Z" fill="#F27052"/>
</svg>
