<svg width="248" height="124" viewBox="0 0 248 124" fill="none" xmlns="http://www.w3.org/2000/svg">
<path d="M79.1957 123.854C79.1955 121.715 79.348 119.578 79.6523 117.46C80.096 114.397 80.8466 111.387 81.8924 108.476C82.1154 107.858 82.3489 107.25 82.6038 106.643C82.8586 106.035 83.1134 105.428 83.3894 104.842C84.701 102.038 86.291 99.3746 88.1351 96.8913C89.4379 95.1755 90.8568 93.5517 92.3819 92.0316C96.0863 88.3313 100.396 85.2961 105.122 83.0581C105.717 82.781 106.311 82.5146 106.916 82.2694C107.522 82.0137 108.127 81.7792 108.743 81.5554C115.685 79.0075 123.15 78.2347 130.465 79.3067C133.52 79.7423 136.523 80.4922 139.425 81.5447C140.041 81.7685 140.646 82.0137 141.251 82.2694C141.857 82.5252 142.451 82.781 143.046 83.0474C149.759 86.1894 155.595 90.9488 160.033 96.902C161.884 99.3824 163.478 102.046 164.789 104.852C165.054 105.439 165.32 106.046 165.575 106.653C165.83 107.261 166.063 107.868 166.286 108.476C167.331 111.391 168.081 114.405 168.526 117.471C168.83 119.588 168.983 121.725 168.983 123.865H171.966C171.962 121.579 171.799 119.297 171.478 117.034C171.006 113.763 170.202 110.549 169.078 107.442C168.845 106.792 168.59 106.142 168.324 105.492C168.059 104.842 167.783 104.213 167.486 103.573C164.146 96.4136 159.099 90.1908 152.792 85.456C150.139 83.4774 147.294 81.7741 144.298 80.3724C143.672 80.074 143.035 79.7969 142.398 79.5305C141.761 79.2641 141.103 79.0083 140.445 78.7738C137.35 77.6469 134.148 76.8433 130.889 76.3759C123.089 75.2314 115.127 76.0555 107.723 78.7738C107.065 79.0189 106.417 79.2641 105.78 79.5412C105.143 79.8183 104.496 80.0847 103.869 80.3831C98.811 82.761 94.2049 86.0069 90.2585 89.9747C88.6491 91.5904 87.1588 93.3215 85.7994 95.1542C83.8253 97.7958 82.1282 100.635 80.7352 103.627C80.4379 104.266 80.1619 104.906 79.8965 105.545C79.631 106.185 79.3762 106.845 79.132 107.506C77.2121 112.743 76.2099 118.274 76.1699 123.854H79.1533H79.1957Z" fill="white"/>
<path d="M110.506 72.262C110.216 72.3048 109.945 72.4331 109.727 72.6306C109.509 72.828 109.354 73.0858 109.282 73.3715C109.21 73.6572 109.224 73.9579 109.321 74.2357C109.419 74.5136 109.597 74.7561 109.832 74.9327C110.067 75.1092 110.349 75.212 110.642 75.228C110.935 75.2439 111.227 75.1724 111.479 75.0224C111.732 74.8724 111.935 74.6506 112.062 74.385C112.189 74.1195 112.235 73.822 112.195 73.5302C112.167 73.3354 112.102 73.1479 112.002 72.9786C111.902 72.8093 111.77 72.6615 111.613 72.5436C111.456 72.4257 111.278 72.3402 111.088 72.2918C110.898 72.2435 110.7 72.2334 110.506 72.262Z" fill="white"/>
<path d="M80.2148 96.6853C79.9786 96.5139 79.6975 96.416 79.4063 96.4037C79.1152 96.3914 78.8268 96.4652 78.5772 96.6161C78.3275 96.767 78.1275 96.9882 78.0021 97.2523C77.8767 97.5163 77.8314 97.8115 77.8718 98.1012C77.9122 98.3909 78.0365 98.6623 78.2293 98.8817C78.4222 99.101 78.675 99.2586 78.9563 99.3348C79.2377 99.4111 79.5351 99.4026 79.8117 99.3105C80.0883 99.2184 80.3319 99.0467 80.512 98.8168C80.6358 98.6588 80.7266 98.4774 80.7788 98.2833C80.8309 98.0892 80.8435 97.8866 80.8158 97.6875C80.788 97.4884 80.7205 97.297 80.6172 97.1248C80.5139 96.9526 80.377 96.8031 80.2148 96.6853Z" fill="white"/>
<path d="M175.437 110.248C175.395 109.956 175.267 109.684 175.07 109.465C174.873 109.246 174.617 109.091 174.332 109.018C174.047 108.946 173.748 108.96 173.471 109.058C173.194 109.156 172.953 109.335 172.777 109.571C172.601 109.807 172.499 110.09 172.483 110.384C172.467 110.678 172.538 110.971 172.687 111.224C172.837 111.478 173.058 111.681 173.322 111.809C173.587 111.937 173.883 111.983 174.174 111.942C174.565 111.884 174.917 111.673 175.153 111.356C175.39 111.039 175.492 110.64 175.437 110.248Z" fill="white"/>
<path d="M150.807 77.7596C150.57 77.5882 150.289 77.4902 149.998 77.4779C149.707 77.4656 149.419 77.5395 149.169 77.6903C148.919 77.8412 148.719 78.0624 148.594 78.3265C148.469 78.5905 148.423 78.8858 148.464 79.1755C148.504 79.4652 148.628 79.7366 148.821 79.9559C149.014 80.1752 149.267 80.3328 149.548 80.409C149.829 80.4853 150.127 80.4769 150.404 80.3848C150.68 80.2927 150.924 80.121 151.104 79.891C151.229 79.7336 151.321 79.5523 151.374 79.358C151.427 79.1637 151.44 78.9606 151.412 78.7611C151.384 78.5616 151.316 78.3698 151.212 78.1977C151.108 78.0255 150.97 77.8764 150.807 77.7596Z" fill="white"/>
<path d="M137.578 72.2607C137.288 72.2196 136.991 72.2659 136.727 72.3936C136.462 72.5214 136.241 72.725 136.092 72.9786C135.942 73.2323 135.871 73.5247 135.887 73.819C135.903 74.1132 136.005 74.3962 136.181 74.6321C136.357 74.8681 136.599 75.0465 136.875 75.1447C137.152 75.243 137.452 75.2568 137.736 75.1844C138.021 75.112 138.278 74.9566 138.474 74.7379C138.671 74.5191 138.799 74.2468 138.842 73.9552C138.896 73.5626 138.794 73.1642 138.558 72.8468C138.321 72.5294 137.969 72.3187 137.578 72.2607Z" fill="white"/>
<path d="M97.2764 77.7693C97.0474 77.9501 96.8763 78.1946 96.7846 78.4722C96.6928 78.7499 96.6844 79.0485 96.7604 79.3309C96.8363 79.6133 96.9933 79.8671 97.2118 80.0607C97.4303 80.2542 97.7007 80.379 97.9893 80.4196C98.2779 80.4602 98.572 80.4147 98.835 80.2888C99.0981 80.1629 99.3185 79.9621 99.4688 79.7115C99.6191 79.4609 99.6927 79.1715 99.6804 78.8792C99.6681 78.5869 99.5705 78.3047 99.3998 78.0677C99.2834 77.9036 99.1349 77.765 98.9634 77.6604C98.7918 77.5559 98.6008 77.4876 98.4021 77.4596C98.2033 77.4317 98.001 77.4447 97.8074 77.498C97.6139 77.5512 97.4332 77.6435 97.2764 77.7693Z" fill="white"/>
<path d="M74.3454 109.003C74.0542 108.962 73.7573 109.008 73.4923 109.136C73.2273 109.264 73.0061 109.468 72.8566 109.722C72.7072 109.976 72.6362 110.269 72.6527 110.564C72.6693 110.859 72.7725 111.142 72.9495 111.378C73.1264 111.614 73.3691 111.792 73.6467 111.889C73.9244 111.986 74.2245 111.999 74.5092 111.925C74.7939 111.851 75.0504 111.694 75.2461 111.473C75.4419 111.253 75.5681 110.979 75.6088 110.687C75.6633 110.296 75.5609 109.898 75.324 109.583C75.0872 109.267 74.7352 109.059 74.3454 109.003Z" fill="white"/>
<path d="M167.868 96.6742C167.639 96.855 167.468 97.0995 167.376 97.3771C167.285 97.6548 167.276 97.9534 167.352 98.2358C167.428 98.5182 167.585 98.772 167.804 98.9655C168.022 99.1591 168.292 99.2839 168.581 99.3245C168.87 99.3651 169.164 99.3196 169.427 99.1937C169.69 99.0678 169.91 98.867 170.061 98.6164C170.211 98.3658 170.284 98.0764 170.272 97.7841C170.26 97.4918 170.162 97.2096 169.992 96.9726C169.873 96.8109 169.724 96.6746 169.552 96.5718C169.381 96.469 169.19 96.4017 168.993 96.3739C168.795 96.3461 168.593 96.3583 168.4 96.4099C168.207 96.4615 168.026 96.5513 167.868 96.6742Z" fill="white"/>
<path d="M119.18 70.4637C118.89 70.5066 118.619 70.6348 118.401 70.8323C118.183 71.0297 118.028 71.2876 117.956 71.5732C117.884 71.8589 117.897 72.1596 117.995 72.4375C118.093 72.7153 118.271 72.9578 118.506 73.1344C118.741 73.311 119.023 73.4137 119.316 73.4297C119.609 73.4457 119.9 73.3741 120.153 73.2241C120.406 73.0741 120.609 72.8523 120.736 72.5868C120.863 72.3212 120.909 72.0237 120.868 71.7319C120.811 71.3398 120.601 70.9864 120.285 70.7489C119.968 70.5113 119.571 70.4088 119.18 70.4637Z" fill="white"/>
<path d="M85.0898 89.2518C84.8536 89.0803 84.5725 88.9824 84.2813 88.9701C83.9902 88.9578 83.7018 89.0316 83.4522 89.1825C83.2025 89.3334 83.0025 89.5546 82.8771 89.8187C82.7517 90.0827 82.7064 90.3779 82.7468 90.6676C82.7872 90.9573 82.9115 91.2287 83.1044 91.4481C83.2972 91.6674 83.55 91.825 83.8313 91.9012C84.1127 91.9775 84.4101 91.969 84.6867 91.8769C84.9633 91.7848 85.2069 91.6132 85.387 91.3832C85.5094 91.2247 85.5989 91.0431 85.6503 90.8493C85.7017 90.6554 85.7139 90.4532 85.6862 90.2546C85.6585 90.0559 85.5914 89.8648 85.489 89.6926C85.3866 89.5204 85.2508 89.3705 85.0898 89.2518Z" fill="white"/>
<path d="M175.546 117.696C175.255 117.738 174.984 117.867 174.766 118.064C174.548 118.262 174.393 118.519 174.321 118.805C174.249 119.091 174.263 119.392 174.36 119.669C174.458 119.947 174.636 120.19 174.871 120.366C175.106 120.543 175.388 120.646 175.681 120.662C175.974 120.678 176.266 120.606 176.518 120.456C176.771 120.306 176.974 120.084 177.101 119.819C177.228 119.553 177.275 119.256 177.234 118.964C177.206 118.769 177.141 118.582 177.041 118.412C176.941 118.243 176.809 118.095 176.652 117.977C176.495 117.859 176.317 117.774 176.127 117.725C175.937 117.677 175.739 117.667 175.546 117.696Z" fill="white"/>
<path d="M158.219 82.6509C157.982 82.476 157.698 82.3751 157.404 82.3611C157.11 82.347 156.818 82.4203 156.566 82.5718C156.313 82.7233 156.11 82.9463 155.983 83.2129C155.856 83.4794 155.81 83.7777 155.85 84.0704C155.891 84.3631 156.017 84.6372 156.212 84.8585C156.408 85.0797 156.663 85.2383 156.948 85.3142C157.233 85.3902 157.533 85.3803 157.812 85.2857C158.091 85.1911 158.336 85.016 158.516 84.7824C158.639 84.6238 158.728 84.4423 158.78 84.2484C158.831 84.0546 158.843 83.8524 158.815 83.6537C158.788 83.4551 158.721 83.264 158.618 83.0918C158.516 82.9195 158.38 82.7696 158.219 82.6509Z" fill="white"/>
<path d="M128.893 70.4636C128.503 70.4089 128.108 70.5117 127.793 70.7494C127.479 70.9872 127.271 71.3405 127.216 71.7318C127.175 72.0241 127.221 72.3221 127.348 72.5882C127.476 72.8542 127.679 73.0763 127.932 73.2263C128.186 73.3763 128.477 73.4475 128.771 73.4309C129.065 73.4143 129.347 73.3107 129.582 73.1331C129.817 72.9555 129.994 72.7119 130.091 72.4332C130.188 72.1545 130.2 71.8532 130.126 71.5674C130.053 71.2816 129.896 71.0241 129.677 70.8276C129.457 70.6312 129.185 70.5045 128.893 70.4636Z" fill="white"/>
<path d="M89.876 82.656C89.647 82.8369 89.4759 83.0813 89.3842 83.3589C89.2924 83.6366 89.284 83.9352 89.36 84.2176C89.4359 84.5 89.5929 84.7538 89.8114 84.9474C90.0299 85.1409 90.3003 85.2658 90.5889 85.3063C90.8775 85.3469 91.1716 85.3014 91.4346 85.1755C91.6977 85.0496 91.9181 84.8489 92.0684 84.5982C92.2187 84.3476 92.2923 84.0582 92.28 83.7659C92.2677 83.4736 92.1702 83.1914 91.9994 82.9544C91.883 82.7903 91.7345 82.6517 91.563 82.5472C91.3914 82.4426 91.2004 82.3743 91.0017 82.3463C90.8029 82.3184 90.6006 82.3315 90.4071 82.3847C90.2135 82.4379 90.0328 82.5303 89.876 82.656Z" fill="white"/>
<path d="M72.549 117.71C72.2583 117.669 71.9619 117.715 71.6974 117.843C71.4328 117.971 71.2119 118.174 71.0625 118.428C70.913 118.682 70.8417 118.974 70.8577 119.268C70.8736 119.562 70.9759 119.845 71.1518 120.081C71.3278 120.317 71.5693 120.496 71.8461 120.594C72.1229 120.692 72.4225 120.706 72.7071 120.634C72.9916 120.561 73.2485 120.406 73.4452 120.187C73.6419 119.968 73.7697 119.696 73.8124 119.404C73.8409 119.21 73.8308 119.011 73.7826 118.821C73.7345 118.63 73.6493 118.451 73.5318 118.293C73.4144 118.136 73.2671 118.003 73.0984 117.903C72.9298 117.803 72.743 117.737 72.549 117.71Z" fill="white"/>
<path d="M162.995 89.2412C162.766 89.422 162.595 89.6665 162.503 89.9442C162.412 90.2218 162.403 90.5204 162.479 90.8028C162.555 91.0852 162.712 91.339 162.931 91.5326C163.149 91.7262 163.419 91.851 163.708 91.8915C163.997 91.9321 164.291 91.8866 164.554 91.7607C164.817 91.6348 165.037 91.4341 165.188 91.1834C165.338 90.9328 165.411 90.6434 165.399 90.3511C165.387 90.0588 165.289 89.7766 165.119 89.5396C165.001 89.3767 164.852 89.2393 164.681 89.1356C164.509 89.032 164.319 88.9642 164.12 88.9363C163.922 88.9084 163.72 88.9211 163.527 88.9735C163.333 89.0259 163.153 89.1169 162.995 89.2412Z" fill="white"/>
<path d="M5.11189 123.87C7.81486 121.88 11.1041 120.856 14.4547 120.961C16.1969 121.087 17.926 121.354 19.6252 121.76C20.3896 121.92 21.1646 122.08 21.9184 122.219C24.727 122.871 27.6578 122.765 30.4119 121.91C32.6269 120.933 34.64 119.549 36.3468 117.828C37.7613 116.381 39.4225 115.201 41.2518 114.343C42.6907 113.868 44.1872 113.592 45.7002 113.522C46.841 113.428 47.9753 113.268 49.0976 113.043C51.4313 112.535 53.6134 111.483 55.4678 109.973C56.7403 110.899 57.84 112.042 58.7165 113.352C59.0554 113.86 59.2587 114.448 59.307 115.058C59.3553 115.668 59.2471 116.28 58.9926 116.837C58.2698 117.721 57.3238 118.394 56.2534 118.787C54.7433 119.392 53.418 120.384 52.4101 121.664C51.2835 120.979 49.9564 120.705 48.6517 120.886C46.9955 121.046 45.403 121.654 43.7467 121.888C41.9206 122.155 40.0521 121.984 38.2259 122.325C37.2056 122.512 36.2403 122.927 35.4019 123.54C34.667 123.062 33.803 122.824 32.9281 122.858C32.0252 122.91 31.1622 123.25 30.465 123.828H54.6184C54.6885 123.654 54.7738 123.486 54.8732 123.327C55.6099 122.492 56.5396 121.852 57.5805 121.462C59.1725 120.841 60.549 119.767 61.5406 118.371C62.0811 117.361 62.3443 116.224 62.3033 115.078C62.2623 113.932 61.9184 112.818 61.3071 111.849C60.2566 110.226 58.9222 108.807 57.3682 107.661C56.0941 106.73 54.9881 105.587 54.0982 104.282C53.6011 103.351 53.2162 102.363 52.9516 101.341C52.5899 99.9352 52.0209 98.5917 51.2635 97.355C49.586 94.8398 46.7301 93.5929 44.7235 92.8789C44.1608 92.6764 43.5875 92.4846 43.0248 92.3034C41.4224 91.8483 39.8792 91.2044 38.4277 90.3851C37.1704 89.6427 36.2123 88.4811 35.7204 87.1026C37.0454 86.473 38.5495 86.3334 39.9671 86.7083C41.5735 87.157 43.1205 87.7974 44.5749 88.6159C45.1057 88.8824 45.6365 89.1595 46.178 89.4152C48.0997 90.3318 50.9981 91.4828 53.9602 90.886C55.364 90.5493 56.7096 90.0033 57.9521 89.266C58.86 88.7347 59.8253 88.3092 60.8293 87.9978C62.378 87.7037 63.9659 87.6821 65.522 87.9339C67.4314 88.2274 69.3784 88.166 71.2657 87.7527C72.3829 87.5086 73.4139 86.9671 74.2508 86.1852C75.0877 85.4032 75.6995 84.4096 76.0221 83.3086C76.3025 81.6203 76.0848 79.8865 75.3957 78.3209C74.9439 77.3188 74.74 76.222 74.8011 75.1237C74.8333 74.9357 74.8904 74.7529 74.971 74.5802C75.141 74.5061 75.3192 74.4524 75.5018 74.4203C76.5951 74.3544 77.688 74.5555 78.6869 75.0065C80.2474 75.7083 81.98 75.9307 83.6662 75.6459C84.7596 75.3122 85.7454 74.6936 86.5231 73.853C87.3008 73.0124 87.8426 71.98 88.0935 70.8608C88.4966 68.9686 88.5542 67.0186 88.2634 65.1058C88.0125 63.5438 88.034 61.9499 88.327 60.3953C88.6301 59.3814 89.0544 58.408 89.5905 57.4965C90.3204 56.247 90.8641 54.8969 91.2042 53.4893C91.7881 50.5159 90.6415 47.6064 89.7285 45.6774C89.4736 45.1339 89.2082 44.6117 88.9322 44.0575C88.1291 42.6091 87.4984 41.071 87.053 39.4749C86.685 38.0513 86.8239 36.5435 87.4458 35.2119C88.8191 35.7057 89.9763 36.6674 90.7159 37.9295C91.5365 39.3845 92.1782 40.934 92.6269 42.5442C92.818 43.1197 92.9985 43.6845 93.2002 44.2494C93.9221 46.2636 95.1643 49.1411 97.6699 50.8249C98.9009 51.5773 100.235 52.1446 101.63 52.5088C102.652 52.7763 103.639 53.1626 104.571 53.6598C105.866 54.559 107.004 55.6683 107.936 56.9423C109.076 58.5013 110.49 59.8378 112.109 60.8855C113.073 61.5009 114.183 61.8479 115.325 61.8909C116.466 61.934 117.599 61.6716 118.606 61.1306C119.998 60.1314 121.068 58.7461 121.685 57.1448C122.076 56.1043 122.714 55.1751 123.543 54.4378C123.699 54.3302 123.866 54.2408 124.042 54.1714C124.215 54.2408 124.379 54.3302 124.531 54.4378C125.36 55.1773 126.001 56.1056 126.399 57.1448C127.01 58.7439 128.077 60.1267 129.467 61.12C130.472 61.6702 131.605 61.9388 132.748 61.8975C133.892 61.8562 135.003 61.5067 135.965 60.8855C137.587 59.8379 139.005 58.5015 140.148 56.9423C140.849 55.8169 141.767 54.8439 142.848 54.0806C143.929 53.3173 145.152 52.7792 146.444 52.4982C147.845 52.1415 149.183 51.5737 150.415 50.8143C152.92 49.1304 154.152 46.2529 154.874 44.2494C155.075 43.6845 155.256 43.109 155.447 42.5335C155.896 40.9234 156.537 39.3738 157.358 37.9189C158.098 36.6639 159.251 35.7067 160.617 35.2119C161.247 36.541 161.39 38.0505 161.021 39.4749C160.571 41.0864 159.933 42.639 159.12 44.1001C158.844 44.633 158.579 45.1659 158.324 45.7094C157.411 47.6384 156.264 50.5479 156.848 53.5213C157.187 54.9309 157.735 56.2817 158.473 57.5284C159.001 58.4441 159.425 59.4165 159.736 60.4272C160.019 61.9829 160.04 63.575 159.8 65.1378C159.509 67.0506 159.567 69.0006 159.97 70.8928C160.221 72.012 160.762 73.0444 161.54 73.885C162.318 74.7256 163.304 75.3442 164.397 75.6779C166.083 75.9621 167.816 75.7396 169.376 75.0385C170.375 74.5883 171.468 74.3872 172.561 74.4523C172.744 74.4859 172.922 74.5395 173.092 74.6122C173.166 74.7837 173.223 74.9622 173.262 75.145C173.325 76.2434 173.121 77.3406 172.668 78.3422C171.979 79.9117 171.761 81.6488 172.041 83.3406C172.372 84.4392 172.987 85.4298 173.825 86.2107C174.663 86.9917 175.692 87.5349 176.808 87.7847C178.693 88.1893 180.636 88.2471 182.541 87.9552C184.098 87.7142 185.684 87.7358 187.234 88.0191C188.236 88.3347 189.201 88.76 190.111 89.2874C191.356 90.0299 192.705 90.5796 194.114 90.9179C197.076 91.5041 199.964 90.3531 201.885 89.4366C202.427 89.1808 202.947 88.9037 203.499 88.6373C204.952 87.815 206.499 87.1744 208.107 86.7296C209.524 86.3528 211.029 86.4925 212.353 87.1239C211.865 88.5042 210.906 89.6668 209.646 90.4064C208.195 91.2257 206.652 91.8696 205.049 92.3247C204.476 92.5059 203.913 92.6977 203.35 92.9002C201.344 93.6142 198.488 94.8612 196.81 97.3763C196.054 98.6122 195.488 99.9561 195.133 101.362C194.864 102.383 194.479 103.37 193.986 104.304C193.097 105.605 191.995 106.748 190.727 107.682C189.168 108.826 187.832 110.25 186.788 111.881C186.177 112.85 185.833 113.964 185.792 115.11C185.751 116.256 186.014 117.393 186.554 118.403C187.548 119.799 188.929 120.87 190.525 121.483C191.562 121.88 192.488 122.523 193.222 123.359C193.325 123.514 193.414 123.678 193.487 123.849H217.619C216.922 123.271 216.059 122.931 215.156 122.879C214.28 122.835 213.413 123.074 212.683 123.561C211.848 122.943 210.881 122.527 209.859 122.346C208.043 122.005 206.164 122.176 204.338 121.91C202.682 121.675 201.089 121.068 199.433 120.908C198.128 120.726 196.801 121.001 195.674 121.686C194.663 120.408 193.339 119.417 191.831 118.808C190.762 118.419 189.816 117.749 189.092 116.869C188.835 116.314 188.724 115.702 188.771 115.091C188.817 114.481 189.019 113.893 189.357 113.384C190.234 112.075 191.334 110.931 192.606 110.005C194.458 111.519 196.641 112.571 198.976 113.075C200.101 113.302 201.24 113.458 202.384 113.544C204.157 113.537 205.91 113.915 207.524 114.65C209.139 115.386 210.576 116.462 211.738 117.806C213.444 119.533 215.462 120.918 217.683 121.888C220.437 122.748 223.369 122.854 226.177 122.197C226.952 122.059 227.716 121.899 228.481 121.739C230.176 121.334 231.902 121.066 233.64 120.94C236.994 120.833 240.288 121.857 242.994 123.849H242.941H247.474L246.296 122.783C242.823 119.556 238.222 117.833 233.492 117.988C231.582 118.116 229.686 118.401 227.822 118.84C227.09 119 226.347 119.16 225.603 119.288C223.333 119.857 220.952 119.798 218.713 119.117C216.851 118.264 215.159 117.075 213.723 115.611C212.042 113.924 210.071 112.555 207.905 111.572C206.217 110.977 204.456 110.619 202.671 110.506C201.641 110.426 200.617 110.287 199.603 110.091C197.892 109.724 196.278 108.997 194.867 107.959C195.507 107.319 196.067 106.604 196.534 105.828C197.148 104.695 197.625 103.493 197.957 102.247C198.238 101.124 198.678 100.047 199.263 99.0495C200.452 97.2697 202.724 96.2999 204.327 95.7244L205.952 95.1809C207.804 94.6568 209.587 93.9089 211.26 92.9535C212.417 92.2957 213.404 91.3745 214.142 90.2638C214.879 89.1532 215.347 87.8842 215.507 86.5591V85.8237L214.965 85.3335C213.919 84.509 212.695 83.9425 211.392 83.6797C210.088 83.4168 208.741 83.4649 207.459 83.8201C205.61 84.3123 203.828 85.028 202.151 85.9516L200.611 86.7083C199.072 87.4436 196.779 88.3708 194.687 87.9552C193.566 87.6697 192.493 87.2208 191.502 86.623C190.384 85.9828 189.198 85.4716 187.966 85.099C187.094 84.8877 186.199 84.7804 185.302 84.7793C185.553 83.0376 186.172 81.3698 187.117 79.8876C187.696 79.0281 188.323 78.2026 188.996 77.4151C190.187 76.08 191.19 74.5885 191.98 72.9816C192.814 70.7496 193.242 68.3851 193.243 66.001C193.23 63.9458 193.589 61.9053 194.305 59.9796C195.419 57.9096 197.065 56.1766 199.072 54.96C199.688 54.5337 200.314 54.1181 200.951 53.7024C202.583 52.6982 204.124 51.5535 205.559 50.2814C209.009 47.0354 211.046 42.5555 211.228 37.8123L211.292 36.203H209.689C204.958 36.3861 200.491 38.4349 197.256 41.9047C195.996 43.3499 194.856 44.8969 193.848 46.53C193.445 47.1695 193.031 47.7983 192.595 48.427C191.371 50.4218 189.652 52.0633 187.606 53.1909C185.685 53.914 183.648 54.2753 181.596 54.2566C179.22 54.257 176.864 54.6903 174.642 55.5355C173.04 56.3204 171.557 57.3286 170.236 58.5302C169.452 59.2023 168.629 59.8286 167.773 60.4059C166.296 61.3563 164.635 61.9811 162.9 62.239C162.899 61.3378 162.792 60.44 162.582 59.564C162.219 58.3242 161.709 57.1327 161.063 56.0151C160.468 55.0201 160.021 53.943 159.736 52.8179C159.322 50.6864 160.246 48.4164 160.968 46.8604C161.212 46.3489 161.477 45.7947 161.732 45.3257C162.654 43.643 163.367 41.8535 163.856 39.9971C164.208 38.7119 164.255 37.3618 163.993 36.0551C163.731 34.7484 163.168 33.5215 162.348 32.473L161.86 31.9188H161.138C159.816 32.0734 158.549 32.5404 157.442 33.2814C156.335 34.0224 155.418 35.0164 154.768 36.1817C153.825 37.892 153.101 39.7145 152.612 41.6063C152.432 42.1499 152.262 42.6721 152.06 43.2369C151.487 44.8568 150.521 47.1375 148.758 48.3311C147.762 48.9142 146.69 49.3554 145.573 49.642C144.333 49.9775 143.136 50.4568 142.006 51.0701C141.233 51.5397 140.521 52.1015 139.883 52.7433C138.847 51.3279 138.123 49.7077 137.759 47.9901C137.568 46.9713 137.43 45.9433 137.345 44.9101C137.255 43.1201 136.916 41.3515 136.337 39.656C135.365 37.4833 134.004 35.5075 132.323 33.8265C130.858 32.3877 129.67 30.6895 128.82 28.8175C128.169 26.5618 128.11 24.1753 128.65 21.8902C128.777 21.1442 128.937 20.3982 129.096 19.6628C129.534 17.7924 129.818 15.889 129.945 13.9718C130.086 9.24473 128.37 4.65153 125.168 1.18297L124.106 0L123.044 1.18297C119.835 4.67299 118.119 9.28848 118.267 14.0357C118.398 15.9496 118.686 17.8495 119.127 19.7161C119.286 20.4621 119.435 21.1975 119.573 21.9435C120.129 24.2268 120.071 26.6177 119.403 28.8708C118.552 30.7428 117.364 32.441 115.899 33.8797C114.218 35.5647 112.858 37.544 111.886 39.72C111.287 41.4122 110.929 43.1812 110.824 44.9741C110.745 46.0043 110.607 47.0291 110.41 48.0434C110.03 49.7653 109.288 51.3858 108.234 52.7966C107.596 52.1581 106.883 51.5999 106.11 51.134C104.983 50.5162 103.785 50.0367 102.543 49.7059C101.424 49.4188 100.352 48.9739 99.358 48.3844C97.585 47.2014 96.6188 44.9208 96.0455 43.3008C95.8544 42.7573 95.6739 42.2351 95.4934 41.6703C94.9661 39.7869 94.2102 37.9758 93.2426 36.2776C92.5914 35.1128 91.6747 34.1193 90.5675 33.3784C89.4603 32.6375 88.1941 32.1702 86.8725 32.0147H86.14L85.6622 32.5689C84.8425 33.6175 84.2791 34.8443 84.0173 36.151C83.7555 37.4577 83.8025 38.8078 84.1546 40.093C84.636 41.9519 85.3495 43.7423 86.278 45.4217C86.5328 45.9332 86.7982 46.4874 87.0424 46.967C87.7749 48.523 88.6986 50.825 88.2846 52.9244C87.9935 54.0473 87.5467 55.1235 86.9575 56.1217C86.3111 57.2353 85.8014 58.4234 85.4393 59.6599C85.2242 60.5351 85.1172 61.4335 85.1207 62.3349C83.3815 62.0856 81.716 61.4641 80.237 60.5125C79.38 59.9411 78.5608 59.3145 77.7845 58.6368C76.2869 57.174 74.5028 56.0397 72.5454 55.3059C70.5879 54.572 68.4999 54.2546 66.4138 54.3738C64.3659 54.3927 62.3322 54.0314 60.4152 53.3081C58.3489 52.1999 56.6207 50.5498 55.4147 48.5336C54.9794 47.9155 54.5653 47.2867 54.1619 46.6473C53.1577 45.0119 52.0176 43.4646 50.7539 42.022C47.5317 38.5415 43.0719 36.4773 38.3427 36.2776H36.7396L36.8033 37.8869C36.9935 42.6335 39.0333 47.1151 42.4833 50.3667C43.9205 51.6321 45.4619 52.773 47.091 53.777C47.7174 54.1927 48.3545 54.6083 48.9702 55.0346C50.9738 56.2514 52.6161 57.9847 53.7266 60.0542C54.442 61.9799 54.8018 64.0204 54.7883 66.0756C54.7788 68.4606 55.2071 70.827 56.0517 73.0562C56.841 74.6657 57.8486 76.1577 59.0457 77.4897C59.7119 78.2799 60.3356 79.1052 60.9142 79.9622C61.8638 81.4422 62.4832 83.111 62.7297 84.8539C61.8317 84.8503 60.9367 84.9577 60.0649 85.1736C58.834 85.5396 57.6507 86.0512 56.5401 86.6976C55.5454 87.2884 54.4733 87.7368 53.355 88.0298C51.2316 88.4454 48.9702 87.5182 47.4308 86.7829L45.8913 86.0262C44.2166 85.0979 42.4334 84.3819 40.5829 83.8947C39.3016 83.5344 37.9534 83.4836 36.6488 83.7467C35.3442 84.0097 34.1201 84.579 33.0768 85.4081L32.5353 85.8877V86.623C32.6951 87.9482 33.1626 89.2171 33.9002 90.3278C34.6378 91.4384 35.6249 92.3597 36.7821 93.0174C38.4338 93.9682 40.1951 94.7126 42.0268 95.2342L43.6618 95.7883C45.2649 96.3638 47.537 97.3337 48.726 99.1134C49.3105 100.113 49.7536 101.189 50.0425 102.311C50.374 103.557 50.8516 104.759 51.4652 105.892C51.9295 106.669 52.4896 107.386 53.1321 108.023C51.7211 109.068 50.1024 109.795 48.3863 110.154C47.3759 110.352 46.3549 110.49 45.3286 110.57C43.5459 110.664 41.7846 111.005 40.0945 111.583C37.9284 112.566 35.9574 113.934 34.2765 115.622C32.8432 117.093 31.1515 118.285 29.2865 119.139C27.042 119.809 24.6602 119.868 22.3856 119.309C21.653 119.171 20.9098 119.021 20.1772 118.862C18.3147 118.418 16.4182 118.132 14.5078 118.009C9.77746 117.854 5.17697 119.577 1.70387 122.805L0.525391 123.87H5.04818H5.11189ZM162.762 65.3722C165.133 65.125 167.414 64.3219 169.419 63.0276C170.371 62.3693 171.286 61.6577 172.158 60.8961C173.277 59.8698 174.531 59.0021 175.885 58.3171C177.781 57.6151 179.787 57.2543 181.809 57.2513C184.228 57.2606 186.628 56.8086 188.88 55.9192C191.418 54.5768 193.557 52.5839 195.08 50.1429C195.526 49.4928 195.95 48.8427 196.375 48.1819C197.288 46.6762 198.325 45.2502 199.475 43.919C201.79 41.5113 204.839 39.9474 208.139 39.4749C207.626 42.8006 206.019 45.8583 203.573 48.1606C202.247 49.3121 200.826 50.3495 199.327 51.2619C198.668 51.6882 198.021 52.1251 197.384 52.5728C194.945 54.0995 192.953 56.2468 191.608 58.7966C190.73 61.059 190.284 63.4666 190.292 65.8945C190.288 67.9239 189.928 69.9368 189.23 71.8413C188.551 73.1997 187.69 74.4583 186.671 75.582C185.924 76.4538 185.233 77.3722 184.601 78.3316C183.307 80.3469 182.503 82.6396 182.255 85.0244C180.701 85.2692 179.116 85.2404 177.573 84.9392C176.974 84.8197 176.415 84.547 175.952 84.1474C175.489 83.7478 175.137 83.235 174.929 82.6585C174.819 81.5231 175.013 80.3787 175.492 79.344C176.14 77.8498 176.378 76.2087 176.182 74.5909C177.455 74.2668 178.579 73.5146 179.367 72.4594C180.429 71.1592 181.129 69.6032 182.127 68.2604C183.125 66.9176 184.675 65.5641 185.726 63.9974C186.323 63.143 186.715 62.162 186.873 61.1306C187.745 60.95 188.536 60.4914 189.127 59.823C189.718 59.1547 190.078 58.3124 190.154 57.4218C189.266 57.4976 188.427 57.8592 187.762 58.4526C187.096 59.0461 186.639 59.8396 186.459 60.715C185.433 60.878 184.457 61.2714 183.603 61.866C182.085 62.9317 180.874 64.3705 179.356 65.4788C177.838 66.5872 176.468 67.184 175.173 68.2497C174.126 69.0445 173.378 70.1713 173.05 71.4469C171.435 71.2559 169.798 71.4948 168.304 72.1397C167.273 72.6202 166.133 72.8152 165.002 72.7045C164.427 72.4969 163.916 72.1433 163.518 71.6783C163.12 71.2132 162.848 70.6525 162.73 70.0508C162.47 68.5013 162.481 66.9181 162.762 65.3722ZM113.266 48.5976C113.487 47.4707 113.643 46.332 113.733 45.1872C113.808 43.669 114.083 42.1675 114.551 40.7218C115.413 38.89 116.588 37.2237 118.022 35.7981C119.74 34.0829 121.119 32.0582 122.089 29.8299C122.943 27.0657 123.049 24.1231 122.397 21.3041C122.259 20.5367 122.099 19.7694 121.94 19.0021C121.526 17.2983 121.26 15.5618 121.144 13.8119C121.038 10.4501 122.055 7.14922 124.032 4.43347C126.039 7.16632 127.058 10.5047 126.919 13.8972C126.803 15.6428 126.54 17.3754 126.134 19.0767C125.975 19.8547 125.815 20.622 125.677 21.3893C125.025 24.2084 125.131 27.1509 125.985 29.9152C126.949 32.1438 128.329 34.1662 130.051 35.8727C131.47 37.2782 132.638 38.9185 133.502 40.7218C133.975 42.1625 134.25 43.6612 134.319 45.1765C134.409 46.325 134.565 47.4672 134.787 48.5976C135.294 50.9397 136.341 53.1298 137.844 54.992C136.922 56.2691 135.783 57.3731 134.479 58.2531C133.972 58.5945 133.386 58.7984 132.778 58.8451C132.169 58.8918 131.559 58.7796 131.007 58.5196C130.133 57.792 129.463 56.8479 129.064 55.7806C128.471 54.2622 127.485 52.9303 126.208 51.9227C126.886 50.7899 127.159 49.4594 126.983 48.1499C126.813 46.4767 126.219 44.8781 125.921 43.2262C125.656 41.3932 125.826 39.5068 125.497 37.6844C125.315 36.659 124.901 35.6892 124.286 34.8496C124.78 34.1032 125.017 33.2159 124.964 32.3218C124.91 31.4277 124.568 30.5755 123.989 29.8939C123.415 30.5783 123.077 31.4307 123.025 32.3239C122.974 33.2171 123.211 34.1031 123.702 34.8496C123.088 35.6892 122.674 36.659 122.492 37.6844C122.163 39.5068 122.333 41.3932 122.068 43.2262C121.823 44.8888 121.229 46.4235 121.059 48.1499C120.887 49.4606 121.164 50.7909 121.845 51.9227C120.561 52.9268 119.571 54.2595 118.978 55.7806C118.59 56.8535 117.918 57.8002 117.035 58.5196C116.483 58.7796 115.873 58.8918 115.264 58.8451C114.656 58.7984 114.07 58.5945 113.563 58.2531C112.259 57.3733 111.12 56.2693 110.198 54.992C111.702 53.129 112.753 50.9395 113.266 48.5976ZM61.3071 75.55C60.2926 74.4226 59.4321 73.1647 58.7484 71.8093C58.0499 69.9048 57.6905 67.8919 57.6867 65.8625C57.696 63.4335 57.2456 61.0249 56.3596 58.7647C55.0219 56.2135 53.0322 54.0654 50.5946 52.5408C49.9576 52.0932 49.2994 51.6562 48.6411 51.2299C47.1431 50.3149 45.7228 49.2776 44.3944 48.1286C41.9491 45.8263 40.342 42.7686 39.8291 39.4429C43.143 39.9554 46.1898 41.569 48.4819 44.0255C49.6325 45.3568 50.6695 46.7828 51.582 48.2885C52.0067 48.9386 52.4313 49.5993 52.8773 50.2388C54.434 52.6844 56.6105 54.6705 59.1837 55.9938C61.4354 56.8832 63.8348 57.3352 66.2545 57.3259C68.2771 57.3202 70.284 57.6813 72.1787 58.3917C73.529 59.078 74.7822 59.9417 75.9053 60.9601C76.7722 61.7075 77.6834 62.4015 78.6338 63.0383C80.6422 64.3341 82.9263 65.1373 85.3012 65.3829C85.5485 66.9384 85.5233 68.5253 85.2269 70.0721C85.1079 70.6734 84.8362 71.2336 84.4382 71.6986C84.0401 72.1635 83.5292 72.5173 82.9549 72.7258C81.8248 72.8399 80.6847 72.6485 79.653 72.1716C78.1626 71.5142 76.5234 71.2713 74.9073 71.4683C74.5783 70.1929 73.8301 69.0664 72.7839 68.271C71.4886 67.2053 69.9492 66.5019 68.6115 65.5108C67.2738 64.5197 65.9254 62.9424 64.3647 61.8979C63.5144 61.2974 62.5367 60.9033 61.5088 60.7469C61.3319 59.8864 60.89 59.1034 60.2454 58.5089C59.5691 57.9021 58.7171 57.5287 57.8141 57.4432C57.8863 58.3377 58.2465 59.1843 58.8402 59.8553C59.4339 60.5262 60.229 60.9851 61.1053 61.1626C61.2612 62.1912 61.6538 63.1691 62.252 64.0188C63.3137 65.5534 64.7469 66.7577 65.8511 68.2817C66.9552 69.8057 67.5498 71.1699 68.6009 72.47C69.3932 73.5202 70.5155 74.2712 71.7859 74.6015C71.599 76.2237 71.8406 77.8666 72.4866 79.3653C72.9619 80.4011 73.1561 81.5445 73.0493 82.6798C72.8392 83.2537 72.4858 83.7639 72.0229 84.1614C71.56 84.5589 71.0032 84.8304 70.4057 84.9498C68.8624 85.2561 67.2771 85.285 65.7237 85.0351C65.4759 82.6551 64.6759 80.3665 63.388 78.3529C62.751 77.3776 62.0561 76.4416 61.3071 75.55Z" fill="white"/>
<path d="M68.2613 123.864C68.2705 121.196 68.4657 118.533 68.8453 115.892C69.383 112.079 70.3152 108.332 71.6269 104.713C71.9029 103.945 72.1896 103.189 72.5081 102.432C72.8266 101.675 73.1451 100.929 73.4848 100.194C76.2423 94.2701 80.0035 88.872 84.6007 84.2399C86.4795 82.3528 88.4913 80.604 90.6205 79.0071C93.6909 76.6967 96.9887 74.7076 100.462 73.0709C101.195 72.7299 101.938 72.3995 102.692 72.0905C103.446 71.7814 104.199 71.483 104.964 71.2059C108.571 69.8905 112.303 68.9512 116.101 68.403C121.382 67.6316 126.746 67.6316 132.026 68.403C135.824 68.9502 139.556 69.8858 143.163 71.1952C143.917 71.4723 144.682 71.7708 145.435 72.0905C146.189 72.4102 146.932 72.7299 147.654 73.0709C151.135 74.6974 154.437 76.6832 157.507 78.9964C164.863 84.5482 170.735 91.8416 174.6 100.226C174.95 100.961 175.269 101.707 175.587 102.464C175.906 103.221 176.193 103.977 176.469 104.734C177.779 108.357 178.712 112.107 179.25 115.924C179.63 118.561 179.825 121.221 179.834 123.885H182.807C182.807 121.078 182.605 118.275 182.202 115.498C181.676 111.843 180.808 108.247 179.611 104.755C180.579 103.775 181.734 103.003 183.009 102.485C185.036 101.611 187.255 101.047 188.986 99.7037C190.717 98.3609 191.852 96.3786 193.488 95.0145C191.364 95.2063 189.145 94.6201 187.001 94.8972C184.856 95.1743 182.86 96.3466 180.811 97.1672C179.55 97.7089 178.191 97.9846 176.819 97.9772C175.198 94.6623 173.275 91.5049 171.075 88.5454C169.403 86.2859 167.572 84.149 165.597 82.151C163.604 80.1676 161.476 78.3265 159.227 76.6412C156.28 74.4337 153.134 72.5071 149.831 70.8862C149.823 69.5091 150.098 68.1451 150.638 66.879C151.455 64.8221 152.612 62.8612 152.899 60.6658C153.186 58.4704 152.591 56.2749 152.782 54.1541C151.423 55.7954 149.427 56.957 148.111 58.6729C146.794 60.3887 146.21 62.6374 145.34 64.6729C144.831 65.9554 144.061 67.117 143.079 68.0833C139.621 66.8846 136.059 66.0105 132.44 65.4722C129.672 65.0784 126.881 64.8754 124.085 64.8648C117.584 64.8814 111.129 65.9613 104.975 68.062C103.999 67.0962 103.233 65.9389 102.724 64.6623C101.853 62.6267 101.29 60.3993 99.9421 58.6622C98.5938 56.925 96.6296 55.7847 95.2707 54.1328C95.4724 56.2643 94.8779 58.5023 95.1645 60.6551C95.4512 62.8079 96.6084 64.8115 97.4259 66.8577C97.9663 68.127 98.2374 69.4953 98.2222 70.8755C94.9221 72.4965 91.7801 74.4232 88.8369 76.6305C86.5881 78.3159 84.4596 80.157 82.4667 82.1404C80.4914 84.1383 78.6607 86.2752 76.9884 88.5348C74.7916 91.4945 72.8724 94.6518 71.2553 97.9665C69.8808 97.9767 68.5187 97.7047 67.2527 97.1672C65.2037 96.3466 63.2502 95.1743 61.0631 94.8972C58.876 94.6201 56.6995 95.2063 54.5762 95.0145C56.2112 96.3786 57.379 98.3715 59.0883 99.693C60.7977 101.015 63.0378 101.611 65.0656 102.485C66.3374 102.997 67.4903 103.766 68.4524 104.745C67.2615 108.237 66.3978 111.834 65.8725 115.487C65.47 118.268 65.2678 121.075 65.2674 123.885H68.2401L68.2613 123.864Z" fill="white"/>
<path d="M124.032 11.1992C123.513 12.338 123.244 13.5757 123.244 14.828C123.244 16.0804 123.513 17.3181 124.032 18.4569C124.554 17.3189 124.825 16.0809 124.825 14.828C124.825 13.5752 124.554 12.3372 124.032 11.1992Z" fill="white"/>
<path d="M203.393 44.1914C202.221 44.6254 201.156 45.3094 200.273 46.1962C199.389 47.0831 198.708 48.1516 198.275 49.3283C199.447 48.8924 200.51 48.2077 201.393 47.3212C202.276 46.4346 202.958 45.367 203.393 44.1914Z" fill="white"/>
<path d="M236.263 123.838C235.13 123.314 233.896 123.043 232.648 123.043C231.4 123.043 230.167 123.314 229.033 123.838H229.118H236.189H236.263Z" fill="white"/>
<path d="M19.0621 123.854C17.9285 123.33 16.6952 123.059 15.4471 123.059C14.199 123.059 12.9657 123.33 11.832 123.854H19.0621Z" fill="white"/>
<path d="M44.6914 44.207C45.1233 45.3823 45.8032 46.4498 46.6847 47.3365C47.5662 48.2231 48.6283 48.9079 49.7981 49.3439C49.3663 48.1687 48.6863 47.1011 47.8048 46.2144C46.9234 45.3278 45.8613 44.643 44.6914 44.207Z" fill="white"/>
</svg>
