<svg width="48" height="48" viewBox="0 0 48 48" fill="none" xmlns="http://www.w3.org/2000/svg">
    <g clip-path="url(#clip0_1669_14579)">
        <path
            d="M16.1766 36.7425C16.1644 36.6825 16.1466 36.6234 16.1231 36.5663C16.0997 36.51 16.0706 36.4556 16.0369 36.405C16.0031 36.3534 15.9638 36.3056 15.9206 36.2625C15.8775 36.2194 15.8297 36.18 15.7781 36.1462C15.7275 36.1125 15.6731 36.0834 15.6159 36.06C15.5597 36.0366 15.5006 36.0178 15.4406 36.0066C15.3197 35.9822 15.195 35.9822 15.075 36.0066C15.015 36.0178 14.9559 36.0366 14.8987 36.06C14.8425 36.0834 14.7881 36.1125 14.7375 36.1462C14.6859 36.18 14.6381 36.2194 14.595 36.2625C14.5519 36.3056 14.5125 36.3534 14.4788 36.405C14.4441 36.4556 14.4159 36.51 14.3925 36.5663C14.3691 36.6234 14.3503 36.6825 14.3391 36.7425C14.3269 36.8025 14.3203 36.8644 14.3203 36.9253C14.3203 36.9862 14.3269 37.0481 14.3391 37.1081C14.3503 37.1681 14.3691 37.2272 14.3925 37.2834C14.4159 37.3406 14.4441 37.395 14.4788 37.4456C14.5125 37.4972 14.5519 37.545 14.595 37.5881C14.6381 37.6313 14.6859 37.6706 14.7375 37.7044C14.7881 37.7382 14.8425 37.7673 14.8987 37.7907C14.9559 37.8142 15.015 37.8329 15.075 37.8442C15.135 37.8563 15.1969 37.8629 15.2578 37.8629C15.3188 37.8629 15.3806 37.8563 15.4406 37.8442C15.5006 37.8329 15.5597 37.8142 15.6159 37.7907C15.6731 37.7673 15.7275 37.7381 15.7781 37.7044C15.8297 37.6706 15.8775 37.6313 15.9206 37.5881C15.9638 37.545 16.0031 37.4972 16.0369 37.4456C16.0706 37.395 16.0997 37.3406 16.1231 37.2834C16.1466 37.2272 16.1644 37.1681 16.1766 37.1081C16.1888 37.0481 16.1953 36.9862 16.1953 36.9253C16.1953 36.8644 16.1888 36.8025 16.1766 36.7425Z"
            fill="#00315C" />
        <path
            d="M43.1243 37.0291C43.1207 37.0197 43.1169 37.0104 43.113 37.0012C42.2501 34.9821 40.2264 34.2359 37.8315 35.0538L31.3001 36.86C30.9225 35.7165 29.9806 34.7433 28.6488 34.2491C28.6405 34.2461 28.6323 34.2431 28.6239 34.2403L21.4445 31.8035C20.8469 31.0311 18.9751 29.0547 15.4704 29.0547C13.0212 29.0547 10.8546 30.7349 9.615 32.5663H0.9375C0.419719 32.5663 0 32.986 0 33.5038V45.3235C0 45.8413 0.419719 46.261 0.9375 46.261H6.51159C7.02938 46.261 7.44909 45.8413 7.44909 45.3235V44.5141H10.0631C10.5809 44.5141 11.0006 44.0943 11.0006 43.5766V43.3067C12.5244 43.4397 13.0256 43.7287 14.4251 44.5357C15.5014 45.1563 17.128 46.0943 20.0573 47.4114C20.0709 47.4175 20.0847 47.4233 20.0985 47.4287C20.6607 47.6499 21.7598 47.9973 23.1147 47.9973C24.0578 47.9973 25.1252 47.8289 26.2207 47.3323L40.6574 42.1633C40.6831 42.1541 40.7084 42.1438 40.7332 42.1323C42.1129 41.4976 44.1689 39.7085 43.1243 37.0291ZM5.57409 44.3859H1.875V34.4412H5.57409V44.3859ZM9.12562 42.639H7.44909V34.4412H9.12562V42.639ZM39.984 40.4127L25.5538 45.5793C25.5412 45.5838 25.524 45.5906 25.5115 45.5957C25.4989 45.6008 25.4862 45.6062 25.4738 45.612C23.464 46.5356 21.5537 45.9827 20.805 45.6916C17.9754 44.4183 16.4652 43.5475 15.3618 42.9112C13.8277 42.0266 13.0884 41.6002 11.0006 41.4278V33.877C11.8893 32.4205 13.6126 30.9296 15.4705 30.9296C18.6567 30.9296 20.0068 33.0019 20.0599 33.0856C20.1743 33.2717 20.3503 33.4121 20.5572 33.4823L28.008 36.0111C29.198 36.4577 29.8268 37.4768 29.5378 38.4931C29.4044 38.9624 29.0962 39.3516 28.67 39.5891C28.2474 39.8245 27.759 39.8827 27.2934 39.7539L18.8941 37.0922C18.4002 36.9357 17.8735 37.2091 17.7172 37.7027C17.5607 38.1962 17.8341 38.7231 18.3277 38.8796L26.7416 41.5459C26.7505 41.5487 26.7594 41.5515 26.7684 41.554C27.1043 41.6495 27.4463 41.6968 27.7863 41.6968C28.4086 41.6968 29.0241 41.5382 29.5826 41.227C30.4463 40.7458 31.0709 39.957 31.3413 39.0059C31.3628 38.9299 31.382 38.854 31.3986 38.7781L38.4376 36.8281C39.4542 36.4808 40.7887 36.3557 41.3829 37.7241C41.9979 39.3307 40.3995 40.2145 39.984 40.4127Z"
            fill="#00315C" />
        <path
            d="M33.6619 12.3323C33.6497 12.2723 33.6319 12.2133 33.6075 12.1561C33.5841 12.0998 33.5559 12.0455 33.5212 11.9948C33.4875 11.9433 33.4481 11.8955 33.405 11.8523C33.3619 11.8092 33.3141 11.7698 33.2625 11.7361C33.2119 11.7023 33.1575 11.6733 33.1012 11.6498C33.0441 11.6264 32.985 11.6077 32.9259 11.5964C32.805 11.572 32.6803 11.572 32.5594 11.5964C32.4994 11.6077 32.4403 11.6264 32.3841 11.6498C32.3269 11.6733 32.2725 11.7023 32.2219 11.7361C32.1703 11.7698 32.1225 11.8092 32.0794 11.8523C32.0362 11.8955 31.9969 11.9433 31.9631 11.9948C31.9294 12.0455 31.9003 12.0998 31.8769 12.1561C31.8534 12.2133 31.8347 12.2723 31.8234 12.3323C31.8113 12.3923 31.8047 12.4542 31.8047 12.5152C31.8047 12.5761 31.8113 12.638 31.8234 12.698C31.8347 12.758 31.8534 12.817 31.8769 12.8733C31.9003 12.9305 31.9294 12.9848 31.9631 13.0355C31.9969 13.087 32.0362 13.1348 32.0794 13.178C32.1225 13.2211 32.1703 13.2605 32.2219 13.2942C32.2725 13.328 32.3269 13.357 32.3841 13.3805C32.4403 13.4039 32.4994 13.4217 32.5594 13.4339C32.6194 13.4461 32.6812 13.4527 32.7422 13.4527C32.8031 13.4527 32.865 13.4461 32.9259 13.4339C32.985 13.4217 33.0441 13.4039 33.1012 13.3805C33.1575 13.357 33.2119 13.328 33.2625 13.2942C33.3141 13.2605 33.3619 13.2211 33.405 13.178C33.4481 13.1348 33.4875 13.087 33.5212 13.0355C33.5559 12.9848 33.5841 12.9305 33.6075 12.8733C33.6319 12.817 33.6497 12.758 33.6619 12.698C33.6741 12.638 33.6797 12.5761 33.6797 12.5152C33.6797 12.4542 33.6741 12.3923 33.6619 12.3323Z"
            fill="#00315C" />
        <path
            d="M47.0627 3.17901H41.4886C40.9708 3.17901 40.5511 3.59873 40.5511 4.11651V4.92595H37.9371C37.4193 4.92595 36.9996 5.34566 36.9996 5.86345V6.13326C35.4757 6.00023 34.9746 5.71129 33.5752 4.90429C32.4989 4.28366 30.8722 3.3457 27.9428 2.0286C27.9292 2.02241 27.9156 2.0167 27.9016 2.01126C26.9481 1.63607 24.449 0.897883 21.7798 2.10754L18.0073 3.45829L14.8274 0.278477C14.4613 -0.0876172 13.8677 -0.0876172 13.5016 0.278477L3.06178 10.7182C2.72409 11.056 2.65931 11.6416 3.06178 12.0441L20.9012 29.8835C21.1867 30.1691 21.8551 30.2554 22.2271 29.8835L31.7582 20.3525C32.006 20.3739 32.2631 20.3854 32.5296 20.3854C34.979 20.3854 37.1455 18.7052 38.385 16.8739H47.0627C47.5805 16.8739 48.0002 16.4542 48.0002 15.9364V4.11651C48.0002 3.59873 47.5805 3.17901 47.0627 3.17901ZM14.1644 2.2672L16.3012 4.40395C15.666 4.79676 14.9317 5.00695 14.1644 5.00695C13.3971 5.00695 12.6628 4.79685 12.0277 4.40395L14.1644 2.2672ZM7.18734 13.5179L5.05059 11.3811L7.18734 9.24435C7.58015 9.87951 7.79034 10.6139 7.79034 11.3811C7.79034 12.1484 7.58025 12.8827 7.18734 13.5179ZM21.5642 27.8947L19.4278 25.7583C20.7322 24.9534 22.396 24.9534 23.7005 25.7583L21.5642 27.8947ZM25.0512 24.4078C22.9795 22.9049 20.1488 22.9049 18.0772 24.4078L8.538 14.8685C9.27009 13.8616 9.66534 12.6522 9.66534 11.3811C9.66534 10.1099 9.27018 8.90057 8.538 7.8937L10.6771 5.7547C11.684 6.48679 12.8933 6.88204 14.1645 6.88204C15.4357 6.88204 16.645 6.48679 17.6519 5.7547L19.6796 7.78241C19.2421 7.84701 18.8154 7.9912 18.4176 8.21291C17.7456 8.58735 17.2183 9.14807 16.89 9.82645C15.8325 10.0223 14.8535 10.5343 14.0855 11.3022C12.0019 13.3859 12.0019 16.7761 14.0856 18.8598C15.1273 19.9016 16.4958 20.4225 17.8643 20.4225C19.2328 20.4225 20.6014 19.9017 21.6432 18.8598C22.321 18.182 22.7959 17.3489 23.0337 16.4411L26.1991 17.5154C25.8427 19.1661 26.2077 20.9027 27.1922 22.2668L25.0512 24.4078ZM19.3514 15.1909C19.3597 15.1939 19.3679 15.1969 19.3762 15.1997L21.2509 15.836C21.1093 16.4749 20.789 17.0624 20.3174 17.534C18.9648 18.8864 16.7639 18.8866 15.4115 17.534C14.0588 16.1815 14.0588 13.9807 15.4115 12.6281C15.7377 12.3016 16.1227 12.0465 16.5423 11.8736C16.7153 13.3138 17.7523 14.5975 19.3514 15.1909ZM28.543 20.9159C28.1812 20.3262 27.9764 19.6531 27.9441 18.9662C28.3931 19.2909 28.9419 19.609 29.5974 19.8614L28.543 20.9159ZM36.9995 15.5626C36.1109 17.0193 34.3876 18.5102 32.5296 18.5102C32.182 18.5102 31.8562 18.4855 31.5517 18.4414C31.5504 18.4412 31.5492 18.441 31.548 18.4409C29.5234 18.1468 28.4343 16.9961 28.0753 16.5404C28.0562 16.5123 27.9747 16.4057 27.9626 16.388C27.8534 16.1928 27.6743 16.0359 27.446 15.9584L19.9921 13.4285C18.8026 12.9821 18.1738 11.9635 18.462 10.9476C18.4622 10.9469 18.4624 10.9463 18.4626 10.9456C18.4628 10.9449 18.463 10.944 18.4632 10.9433C18.5972 10.4755 18.9049 10.0874 19.3301 9.85054C19.7526 9.61513 20.2409 9.55673 20.7067 9.68582L29.106 12.3475C29.5997 12.5041 30.1266 12.2306 30.2829 11.737C30.4393 11.2434 30.166 10.7165 29.6724 10.56L22.9923 8.44316L22.934 8.38485C22.9334 8.38429 22.9328 8.38363 22.9322 8.38307L19.4737 4.92463L22.4464 3.8602C22.4564 3.85654 22.4688 3.85195 22.4787 3.84791C22.4812 3.84688 22.4861 3.84501 22.4886 3.84398C22.5013 3.83882 22.5139 3.83338 22.5263 3.82766C24.536 2.90404 26.4462 3.45688 27.195 3.74807C30.0247 5.02129 31.535 5.89213 32.6384 6.52841C34.1725 7.41313 34.9117 7.83941 36.9995 8.01182V15.5626ZM40.5511 14.9987H38.8746V6.80095H40.5511V14.9987ZM46.1252 14.9987H42.4261V5.05401H46.1252V14.9987Z"
            fill="#00315C" />
    </g>
    <defs>
        <clipPath id="clip0_1669_14579">
            <rect width="48" height="48" fill="white" />
        </clipPath>
    </defs>
</svg>