<svg width="20" height="20" viewBox="0 0 20 20" fill="none" xmlns="http://www.w3.org/2000/svg">
    <g clip-path="url(#clip0_4046_7172)">
        <path
            d="M15.8327 0.832031L19.166 4.16536M19.166 4.16536L15.8327 7.4987M19.166 4.16536H12.4994M18.3327 14.0987V16.5987C18.3337 16.8308 18.2861 17.0605 18.1931 17.2732C18.1002 17.4858 17.9638 17.6767 17.7928 17.8336C17.6218 17.9905 17.4199 18.1099 17.2 18.1843C16.9801 18.2586 16.7472 18.2863 16.516 18.2654C13.9517 17.9867 11.4885 17.1105 9.32437 15.707C7.3109 14.4276 5.60382 12.7205 4.32437 10.707C2.91602 8.53303 2.03958 6.05786 1.76604 3.48203C1.74522 3.25159 1.7726 3.01933 1.84646 2.80005C1.92031 2.58077 2.03902 2.37927 2.19501 2.20838C2.35101 2.03749 2.54088 1.90096 2.75253 1.80747C2.96419 1.71398 3.19299 1.66558 3.42437 1.66536H5.92438C6.3288 1.66138 6.72087 1.8046 7.02751 2.06831C7.33415 2.33202 7.53444 2.69824 7.59104 3.0987C7.69656 3.89875 7.89225 4.6843 8.17438 5.44036C8.28649 5.73863 8.31076 6.06279 8.2443 6.37443C8.17783 6.68607 8.02343 6.97212 7.79937 7.1987L6.74104 8.25703C7.92734 10.3433 9.65475 12.0707 11.741 13.257L12.7994 12.1987C13.0259 11.9746 13.312 11.8202 13.6236 11.7538C13.9353 11.6873 14.2594 11.7116 14.5577 11.8237C15.3138 12.1058 16.0993 12.3015 16.8994 12.407C17.3042 12.4641 17.6739 12.668 17.9382 12.9799C18.2024 13.2919 18.3428 13.69 18.3327 14.0987Z"
            stroke="#707070" stroke-width="2" stroke-linecap="round" stroke-linejoin="round" />
    </g>
    <defs>
        <clipPath id="clip0_4046_7172">
            <rect width="20" height="20" fill="white" />
        </clipPath>
    </defs>
</svg>