<svg width="48" height="48" viewBox="0 0 48 48" fill="none" xmlns="http://www.w3.org/2000/svg">
    <mask id="mask0_4189_3127" style="mask-type:luminance" maskUnits="userSpaceOnUse" x="0" y="0"
        width="48" height="48">
        <path d="M0 3.8147e-06H48V48H0V3.8147e-06Z" fill="white" />
    </mask>
    <g mask="url(#mask0_4189_3127)">
        <path
            d="M32.5753 15.0625C29.7718 13.4202 28.39 11.9427 25.6689 12.7213C21.3666 14.337 19.5862 15.2989 15.4248 15.0067V13.3644C15.4248 8.64747 19.2833 4.78891 24 4.78891C28.7169 4.78891 32.5753 8.64747 32.5753 13.3644V15.0625Z"
            stroke="#00315C" stroke-miterlimit="10" stroke-linecap="round" stroke-linejoin="round" />
        <path
            d="M11.7314 14.8062V13.2091C11.7314 6.45122 17.2454 0.937126 24.0004 0.937126C30.7581 0.937126 36.2721 6.45122 36.2721 13.2091V14.8594"
            stroke="#00315C" stroke-miterlimit="10" stroke-linecap="round" stroke-linejoin="round" />
        <path
            d="M15.4248 15.0042V18.6315C15.4248 23.3485 19.2833 27.207 24.0001 27.207C28.7169 27.207 32.5753 23.3485 32.5753 18.6315V15.0042"
            stroke="#00315C" stroke-miterlimit="10" stroke-linecap="round" stroke-linejoin="round" />
        <path
            d="M9.40596 47.0625H6.62646V39.744C6.73803 32.9143 15.0822 31.668 19.9 30.0762V26.1565M28.1005 26.1565V30.0762C32.9183 31.668 41.2624 32.9143 41.374 39.744V47.0625H17.8245"
            stroke="#00315C" stroke-miterlimit="10" stroke-linecap="round" stroke-linejoin="round" />
        <path d="M28.1007 30.0754L18.9408 36.2539L16.3179 31.1437" stroke="#00315C"
            stroke-miterlimit="10" stroke-linecap="round" stroke-linejoin="round" />
        <path
            d="M15.4247 13.7304H13.9126C12.5601 13.7304 11.4546 14.8359 11.4546 16.1886V17.1798C11.4546 18.5324 12.5601 19.6406 13.9126 19.6406H15.4858"
            stroke="#00315C" stroke-miterlimit="10" stroke-linecap="round" stroke-linejoin="round" />
        <path
            d="M32.5756 13.7304H34.0877C35.4402 13.7304 36.5457 14.8359 36.5457 16.1886V17.1798C36.5457 18.5324 35.4402 19.6406 34.0877 19.6406H32.5171"
            stroke="#00315C" stroke-miterlimit="10" stroke-linecap="round" stroke-linejoin="round" />
        <path d="M24 23.3984H34.5762C35.509 23.3984 36.2716 22.6358 36.2716 21.7031V18.3068"
            stroke="#00315C" stroke-miterlimit="10" stroke-linecap="round" stroke-linejoin="round" />
        <path d="M25.6929 39.5938L26.9577 34.8396M21.0425 34.8396L22.3074 39.5938" stroke="#00315C"
            stroke-miterlimit="10" stroke-linecap="round" stroke-linejoin="round" />
        <path d="M20.604 47.0625L22.3074 39.5925H25.6928L27.3989 47.0625" stroke="#00315C"
            stroke-miterlimit="10" stroke-linecap="round" stroke-linejoin="round" />
        <path d="M19.8999 30.0754L29.0624 36.2539L31.6827 31.1437" stroke="#00315C"
            stroke-miterlimit="10" stroke-linecap="round" stroke-linejoin="round" />
        <path d="M32.0093 42.375H36.734" stroke="#00315C" stroke-miterlimit="10"
            stroke-linecap="round" stroke-linejoin="round" />
        <path d="M13.6179 47.0625H13.6152" stroke="#00315C" stroke-miterlimit="10"
            stroke-linecap="round" stroke-linejoin="round" />
    </g>
</svg>