<svg width="18" height="16" viewBox="0 0 18 16" fill="none" xmlns="http://www.w3.org/2000/svg">
    <path
        d="M17.4899 3.82961C17.5433 3.78525 17.5833 3.72696 17.6055 3.66121C17.6277 3.59546 17.6312 3.52484 17.6157 3.45721C17.6001 3.38958 17.5661 3.32759 17.5174 3.27813C17.4687 3.22868 17.4073 3.19371 17.3399 3.17711L16.7474 3.03461C16.6928 3.02089 16.6421 2.99483 16.5992 2.95842C16.5563 2.92201 16.5223 2.87623 16.4999 2.82461C16.4759 2.77424 16.4635 2.71915 16.4635 2.66336C16.4635 2.60757 16.4759 2.55248 16.4999 2.50211L16.8374 1.83461C16.8695 1.76926 16.8819 1.69598 16.873 1.62372C16.8641 1.55146 16.8344 1.48334 16.7875 1.42768C16.7406 1.37201 16.6785 1.33121 16.6088 1.31024C16.5391 1.28928 16.4647 1.28906 16.3949 1.30961L14.8949 1.72961C14.8397 1.74484 14.7816 1.74666 14.7255 1.73492C14.6694 1.72318 14.6169 1.69822 14.5724 1.66211C14.0153 1.24426 13.3528 0.989806 12.6592 0.927264C11.9656 0.864721 11.2683 0.996561 10.6454 1.30801C10.0225 1.61946 9.4986 2.09821 9.13247 2.69062C8.76634 3.28303 8.57241 3.96569 8.57241 4.66211V4.93211C8.57274 4.97818 8.5561 5.02275 8.52567 5.05733C8.49524 5.09192 8.45314 5.11408 8.40741 5.11961C6.29991 5.36711 4.28241 4.29461 2.10741 1.78961C2.06154 1.73547 2.00125 1.69545 1.93354 1.67421C1.86583 1.65297 1.79349 1.65137 1.72491 1.66961C1.65958 1.69707 1.60358 1.74283 1.56366 1.80138C1.52374 1.85993 1.5016 1.92877 1.49991 1.99961C1.19597 3.23336 1.31753 4.53359 1.84491 5.68961C1.86132 5.71949 1.86993 5.75302 1.86993 5.78711C1.86993 5.8212 1.86132 5.85473 1.84491 5.88461C1.82474 5.91443 1.79609 5.93751 1.76267 5.95088C1.72924 5.96425 1.69258 5.96729 1.65741 5.95961L0.809909 5.79461C0.749946 5.78648 0.688912 5.79241 0.631637 5.81193C0.574362 5.83146 0.522416 5.86404 0.479908 5.90711C0.439009 5.95068 0.408886 6.00322 0.391954 6.06053C0.375023 6.11784 0.371753 6.17831 0.382408 6.23711C0.447163 6.8127 0.640539 7.36635 0.948223 7.85709C1.25591 8.34782 1.67002 8.76308 2.15991 9.07211C2.18926 9.08988 2.21317 9.11536 2.22903 9.14577C2.2449 9.17619 2.25212 9.21038 2.24991 9.24461C2.24954 9.28015 2.23866 9.31478 2.21864 9.34414C2.19862 9.37351 2.17035 9.39629 2.13741 9.40961L1.73241 9.56711C1.63649 9.60912 1.56103 9.68728 1.52241 9.78461C1.50219 9.83204 1.49177 9.88306 1.49177 9.93461C1.49177 9.98617 1.50219 10.0372 1.52241 10.0846C1.74223 10.5656 2.07543 10.9861 2.49343 11.3101C2.91144 11.634 3.40178 11.8518 3.92241 11.9446C3.95942 11.9557 3.99251 11.9771 4.01776 12.0063C4.04301 12.0355 4.05937 12.0714 4.06491 12.1096C4.06862 12.1498 4.05979 12.1901 4.03964 12.225C4.01949 12.2599 3.98902 12.2877 3.95241 12.3046C2.93646 12.7206 1.84769 12.9297 0.749908 12.9196C0.650452 12.8997 0.547168 12.9202 0.462776 12.9764C0.378385 13.0327 0.3198 13.1202 0.299908 13.2196C0.280017 13.3191 0.30045 13.4224 0.35671 13.5067C0.412971 13.5911 0.500452 13.6497 0.599908 13.6696C2.50951 14.5788 4.59039 15.0722 6.70491 15.1171C8.56438 15.1446 10.3906 14.6228 11.9549 13.6171C13.2423 12.7594 14.297 11.5959 15.0247 10.2308C15.7524 8.86572 16.1304 7.34155 16.1249 5.79461V5.14211C16.1248 5.08756 16.1369 5.03369 16.1603 4.98439C16.1836 4.9351 16.2177 4.89162 16.2599 4.85711L17.4899 3.82961Z"
        fill="white" />
</svg>