<svg width="18" height="14" viewBox="0 0 18 14" fill="none" xmlns="http://www.w3.org/2000/svg">
    <path
        d="M15.045 0.625H2.955C2.1749 0.636616 1.43002 0.951675 0.878347 1.50335C0.326675 2.05502 0.0116162 2.7999 0 3.58L0 10.42C0.0116162 11.2001 0.326675 11.945 0.878347 12.4967C1.43002 13.0483 2.1749 13.3634 2.955 13.375H15.045C15.8251 13.3634 16.57 13.0483 17.1217 12.4967C17.6733 11.945 17.9884 11.2001 18 10.42V3.58C17.9884 2.7999 17.6733 2.05502 17.1217 1.50335C16.57 0.951675 15.8251 0.636616 15.045 0.625ZM12.405 7L7.3275 10.27C7.26816 10.3112 7.19718 10.3322 7.125 10.33C7.06218 10.3303 7.00028 10.3148 6.945 10.285C6.88634 10.252 6.83742 10.2041 6.80318 10.1462C6.76894 10.0882 6.7506 10.0223 6.75 9.955V3.46C6.7506 3.3927 6.76894 3.32675 6.80318 3.26881C6.83742 3.21087 6.88634 3.16299 6.945 3.13C7.00261 3.09489 7.06878 3.07631 7.13625 3.07631C7.20372 3.07631 7.26989 3.09489 7.3275 3.13L12.405 6.3775C12.4576 6.4115 12.5009 6.45814 12.5309 6.51316C12.5608 6.56819 12.5765 6.62985 12.5765 6.6925C12.5765 6.75516 12.5608 6.81681 12.5309 6.87184C12.5009 6.92686 12.4576 6.97351 12.405 7.0075V7Z"
        fill="white" />
</svg>